<?xml version="1.0" encoding="UTF-8" standalone="no"?>
<!-- Created with Inkscape (http://www.inkscape.org/) -->

<svg
   xmlns:dc="http://purl.org/dc/elements/1.1/"
   xmlns:cc="http://creativecommons.org/ns#"
   xmlns:rdf="http://www.w3.org/1999/02/22-rdf-syntax-ns#"
   xmlns:svg="http://www.w3.org/2000/svg"
   xmlns="http://www.w3.org/2000/svg"
   xmlns:sodipodi="http://sodipodi.sourceforge.net/DTD/sodipodi-0.dtd"
   xmlns:inkscape="http://www.inkscape.org/namespaces/inkscape"
   id="svg2985"
   version="1.1"
   inkscape:version="0.48.1 "
   width="258"
   height="297"
   sodipodi:docname="Bermuda logo B.svg">
  <metadata
     id="metadata2991">
    <rdf:RDF>
      <cc:Work
         rdf:about="">
        <dc:format>image/svg+xml</dc:format>
        <dc:type
           rdf:resource="http://purl.org/dc/dcmitype/StillImage" />
        <dc:title></dc:title>
      </cc:Work>
    </rdf:RDF>
  </metadata>
  <defs
     id="defs2989" />
  <sodipodi:namedview
     pagecolor="#ffffff"
     bordercolor="#666666"
     borderopacity="1"
     objecttolerance="10"
     gridtolerance="10"
     guidetolerance="10"
     inkscape:pageopacity="0"
     inkscape:pageshadow="2"
     inkscape:window-width="1920"
     inkscape:window-height="1005"
     id="namedview2987"
     showgrid="false"
     inkscape:zoom="2.8284271"
     inkscape:cx="28.282578"
     inkscape:cy="122.84278"
     inkscape:window-x="-9"
     inkscape:window-y="-9"
     inkscape:window-maximized="1"
     inkscape:current-layer="svg2985" />
  <g
     id="g3999"
     transform="translate(-116.73554,-102.49503)"
     style="fill:#085231;fill-opacity:1">
    <path
       id="path3131"
       d="m 219.75,394.31067 c -0.9625,-0.25152 -1.75,-1.15904 -1.75,-2.0167 0,-1.70892 3.65516,-5.29226 5.40301,-5.29685 0.60334,-0.002 1.99699,-1.35028 3.09699,-2.99712 1.1,-1.64684 2.3375,-2.99554 2.75,-2.99712 1.12879,-0.004 0.90081,6.26605 -0.35923,9.88062 -0.86124,2.47055 -1.53195,3.04777 -3,2.58183 -1.04824,-0.3327 -1.89077,-0.12448 -1.89077,0.46728 0,1.08961 -1.13935,1.19096 -4.25,0.37806 z"
       style="fill:#085231;fill-opacity:1"
       inkscape:connector-curvature="0" />
  </g>
  <g
     id="g3103"
     transform="translate(0,-204.76776)">
    <g
       id="g3058" />
  </g>
  <g
     id="g3229"
     transform="translate(0,-204.76776)">
    <g
       id="g3132">
      <g
         id="g3127"
         style="fill:#f9f9f9" />
    </g>
  </g>
  <g
     id="g3299"
     transform="translate(0,-204.76776)"
     style="fill:#085231;fill-opacity:1">
    <g
       id="g3303"
       style="fill:#085231;fill-opacity:1">
      <path
         style="fill:#085231;fill-opacity:1"
         d="m 109.65625,205.28125 c -0.18345,0.0793 -0.34614,0.62462 -0.59375,1.5 -0.46452,1.64226 -0.76105,5.025 -0.65625,7.5 0.1048,2.475 0.0939,6.075 -0.0312,8 -0.19214,2.95557 -0.35509,3.15407 -1.0625,1.40625 -0.46075,-1.13838 -1.19037,-5.18838 -1.59375,-9 -1.26169,-11.92185 -2.3274,-11.6483 -2.4375,0.59375 -0.1189,13.22044 -0.89526,12.9213 -5,-1.8125 -1.51012,-5.42053 -2.6721,-7.9529 -3.3125,-7.3125 -0.54621,0.54621 -0.63086,1.79997 -0.1875,2.8125 0.97793,2.23337 4.37485,13.89696 5.03125,17.3125 0.26425,1.375 0.69095,3.625 0.96875,5 0.2778,1.375 -2.30398,-2.87511 -5.75,-9.4375 C 91.58522,215.28135 88.18787,209.72106 87.5,209.5 c -1.26184,-0.40552 -1.03438,1.00852 0.8125,5.28125 1.71219,3.9611 3.9375,9.75591 3.9375,10.21875 0,0.25987 -1.45605,-1.26046 -3.25,-3.375 -5.97425,-7.04189 -8.62471,-9.5626 -9.75,-9.1875 -0.61682,0.2056 1.11546,3.48445 3.90625,7.3125 2.77443,3.8056 4.88463,7.08411 4.6875,7.28125 -0.19714,0.19713 -2.51006,-1.04059 -5.15625,-2.71875 -2.64618,-1.67816 -5.2424,-3.03125 -5.75,-3.03125 -0.86086,0 3.14195,5.84382 6.03125,8.8125 2.38057,2.44567 1.32459,2.2086 -4.25,-0.9375 -5.97555,-3.37239 -8.85188,-3.03507 -3.96875,0.46875 1.63546,1.1735 5.23546,4.34703 8,7.03125 l 5,4.875 -5,-4 c -5.51219,-4.40808 -15.35437,-9.73938 -16.28125,-8.8125 -0.32466,0.32465 1.62691,2.85538 4.34375,5.625 3.90432,3.98017 4.41349,4.85118 2.4375,4.125 -4.56891,-1.67909 -10,-2.33321 -10,-1.21875 0,0.57943 3.375,2.7089 7.5,4.75 8.22824,4.07145 9.53791,5.53158 3.75,4.1875 -2.0625,-0.47896 -6,-0.87411 -8.75,-0.875 l -5,0 2.5,1.9375 c 1.37358,1.05528 4.97786,2.67443 8,3.625 6.38044,2.0069 5.08219,3.16551 -1.65625,1.46875 -5.13953,-1.29415 -6.56139,-0.85715 -3.4375,1.09375 1.15356,0.72041 2.09375,1.8698 2.09375,2.5625 0,0.83343 1.60672,1.26995 4.75,1.28125 4.56959,0.0165 18.77961,3.18586 20.0625,4.46875 0.89138,0.89137 -7.75696,-0.42303 -11.09375,-1.6875 -2.0378,-0.77219 -3.13758,-0.76867 -3.96875,0.0625 -1.57444,1.57444 -0.15886,2.64242 5.25,3.96875 2.475,0.6069 9,3.14478 14.5,5.625 8.88108,4.00491 10.2191,4.9304 11.75,8.28125 3.45246,7.55676 1.35226,7.88834 -8.25,1.3125 -4.45901,-3.05362 -14.70427,-7.67573 -25.03125,-11.28125 -0.84474,-0.29493 -5.3839,-3.4688 -10.09375,-7.0625 -16.01286,-12.21812 -37.53886,-22.6875 -46.625,-22.6875 -4.70294,0 -3.37,1.09743 4.75,3.9375 7.59221,2.65548 16,6.99347 16,8.25 0,0.48195 -0.79223,0.43555 -1.78125,-0.0937 -6.42028,-3.43608 -28.21875,-6.59462 -28.21875,-4.0938 0,0.55 1.70397,1 3.75,1 4.4004,0 29.3049,5.79359 30.75,7.15625 0.64603,0.6092 0.46905,0.78755 -0.5,0.46875 -4.82695,-1.58803 -30.61963,-3.05403 -31.40625,-1.78125 -0.29604,0.47904 -1.67438,0.67161 -3.0625,0.40625 -1.47965,-0.28285 -2.53125,-0.0296 -2.53125,0.625 0,0.61412 0.5625,1.1471 1.25,1.1875 0.6875,0.0404 2.93992,0.22806 5,0.40625 2.15453,0.18636 3.52078,-0.0857 3.1875,-0.625 -0.33427,-0.54087 0.43212,-0.6902 1.8125,-0.34375 4.40494,1.10557 6.23907,1.32925 11.6875,1.40625 7.83333,0.11065 5.33971,1.43372 -3.1875,1.6875 -11.24643,0.3347 -21.18755,1.44286 -22.78125,2.53125 -0.98366,0.67179 0.87073,0.75584 5.75,0.3125 9.34572,-0.84916 26.18653,-0.90721 27,-0.0937 0.3485,0.3485 -1.12709,0.6885 -3.28125,0.75 -5.01441,0.14312 -17.85681,1.49064 -22.9375,2.40625 -0.55,0.0991 -2.4625,0.25995 -4.25,0.34375 -1.7875,0.0838 -3.25,0.6436 -3.25,1.25 0,0.7634 2.07628,0.88934 6.75,0.40625 3.7125,-0.38374 12.6,-0.85003 19.75,-1.03125 10.55938,-0.26764 12.0613,-0.13803 8,0.65625 -16.96553,3.31802 -34.98724,8.20117 -36.9375,10 -1.74425,1.60882 3.74169,0.89771 16.4375,-2.125 6.875,-1.63685 14.75,-2.9671 17.5,-2.9375 l 5,0.0625 -5.5,1.40625 c -3.025,0.7664 -7.75,1.91676 -10.5,2.5625 -6.77717,1.59138 -12.5,3.8978 -12.5,5.0625 0,0.52734 0.80912,0.71479 1.78125,0.40625 4.10136,-1.30172 25.59195,-5.56429 26,-5.15625 0.24491,0.24492 -1.28823,0.88837 -3.40625,1.4375 -2.11802,0.54912 -5.83004,1.52582 -8.25,2.15625 -6.48567,1.68959 -15.125,5.69692 -15.125,7.03125 0,0.71004 0.68068,0.90186 1.75,0.46875 12.27541,-4.97197 28.56965,-9.71128 37.75,-10.96875 3.86016,-0.52874 3.89512,-0.49125 1,0.59375 -11.70107,4.38521 -22.5,11.11218 -22.5,14.03125 0,0.4259 4.8375,-1.64509 10.75,-4.59375 5.9125,-2.94866 11.875,-5.65435 13.25,-6.03125 2.45159,-0.67201 2.45805,-0.6684 -0.28125,1.21875 -4.3903,3.02454 -18.71875,16.27795 -18.71875,17.3125 0,1.72387 1.79454,0.94079 6.0625,-2.625 5.19065,-4.33666 12.85179,-8.8982 13.625,-8.125 0.31285,0.31286 -0.39979,1.77186 -1.5625,3.25 -3.94946,5.02093 -2.24247,6.09535 1.9375,1.21875 2.21909,-2.58893 8.12242,-7.42643 13.125,-10.75 8.96638,-5.95703 12.25042,-7.46876 9.8125,-4.53125 -0.68469,0.825 -1.7236,1.491 -2.34375,1.5 -1.71829,0.0243 -8.03539,5.93335 -7.21875,6.75 0.68983,0.68982 1.54673,0.24275 9.8125,-4.71875 2.0625,-1.23801 3.758,-1.84182 3.75,-1.375 -0.0079,0.46683 -2.25792,2.08141 -5,3.59375 -2.78828,1.53782 -5,3.44036 -5,4.34375 0,1.74931 0.06731,1.75114 9,-4.25 6.73616,-4.52547 7.97502,-2.67968 2.0625,3.09375 -5.39766,5.27067 -4.02768,6.5657 1.65625,1.5625 5.67333,-4.99387 6.96969,-5.11948 3.75,-0.375 -2.72191,4.01096 -2.95438,4.95683 -1.46875,5.875 0.55,0.33992 1,-0.0353 1,-0.8125 0,-2.1979 4.68982,-6.6875 6.96875,-6.6875 2.75101,0 2.59191,1.56437 -0.5,4.65625 -3.97103,3.97106 -2.1228,3.91629 2.28125,-0.0625 l 3.9375,-3.53125 3.34375,3.4375 c 1.8405,1.89891 3.14365,3.61092 2.90625,3.78125 -0.23741,0.17033 -3.3625,1.27542 -6.9375,2.46875 l -6.5,2.15625 7.65625,-0.5625 c 7.7889,-0.58249 11.84375,0.0231 11.84375,1.75 0,0.60049 -0.70607,0.57982 -1.90625,-0.0625 -2.64464,-1.41537 -7.34365,-1.31231 -9.4375,0.21875 -1.4693,1.07438 -0.78161,1.28627 4.4375,1.40625 3.37983,0.0777 6.65221,0.65155 7.28125,1.28125 0.85891,0.8598 0.004,0.97823 -3.375,0.46875 -2.475,-0.37314 -4.89375,-0.71375 -5.375,-0.78125 -0.48125,-0.0675 -1.02834,0.34126 -1.25,0.9375 -0.22167,0.59624 2.98458,2.7662 7.125,4.8125 4.14041,2.0463 7.5,4.12231 7.5,4.625 0,1.18633 -2.32805,0.27725 -8.34375,-3.25 -2.67762,-1.57 -5.34202,-2.68808 -5.90625,-2.5 -0.56424,0.18808 2.20909,2.30259 6.15625,4.6875 3.94716,2.38491 6.98078,4.51922 6.75,4.75 -0.23077,0.23078 -1.93172,-0.49742 -3.78125,-1.625 -3.65063,-2.22564 -4.875,-2.53818 -4.875,-1.21875 0,0.46779 2.25,2.25926 5,3.96875 4.26197,2.64939 6.43829,5.1875 4.4375,5.1875 -0.68298,0 -7.06253,-4.2846 -17.9375,-12.0625 C 84.09983,298.02557 77.10177,295.73805 63.0625,297.25 c -4.57202,0.49238 -11.19386,1.14617 -14.75,1.46875 -3.55614,0.32258 -8.28114,1.07789 -10.5,1.6875 -2.21886,0.6096 -4.7375,1.19969 -5.5625,1.3125 -5.41588,0.7406 -10.10395,1.94555 -10.5625,2.6875 -0.76307,1.23468 2.02282,1.04668 10.0625,-0.65625 8.16007,-1.72844 11.87057,-1.87736 11,-0.46875 -0.33992,0.55 -1.25229,1 -2.0625,1 -0.8102,0 -3.17391,0.75847 -5.21875,1.6875 -2.04483,0.92902 -4.16875,1.75485 -4.71875,1.84375 -2.48157,0.40117 -8.5,3.58764 -8.5,4.5 0,0.58851 1.15119,0.44014 2.75,-0.375 3.99031,-2.03444 18.00059,-6.65281 23.375,-7.6875 2.53959,-0.48893 5.87431,-0.5347 7.40625,-0.125 2.75436,0.73663 2.73533,0.74979 -1.4375,2 -5.73701,1.71885 -27.09375,12.08802 -27.09375,13.15625 0,0.4722 4.1625,-1.09246 9.25,-3.5 7.8974,-3.73727 30.63443,-10.99056 31.5625,-10.0625 0.16817,0.16818 -3.21121,1.55192 -7.5,3.0625 -8.79632,3.09821 -18.99769,7.72651 -21.375,9.6875 -1.63173,1.34598 -4.34556,5.8125 -3.53125,5.8125 0.25079,0 3.97519,-2.2048 8.28125,-4.875 8.75012,-5.42596 20.01205,-10.58556 25.3125,-11.59375 2.58814,-0.49229 1.02495,0.70152 -6,4.53125 -5.225,2.84846 -10.625,5.95202 -12,6.90625 -1.375,0.95422 -3.625,2.02466 -5,2.375 -3.29903,0.84058 -5.60052,2.36824 -4.78125,3.1875 0.36135,0.36135 3.27103,-0.51257 6.46875,-1.9375 l 5.8125,-2.59375 -3.90625,3.5 c -6.24779,5.56432 -3.41818,5.14022 3.5625,-0.53125 5.59824,-4.54831 17.56575,-11.40673 24.46875,-14.03125 4.80882,-1.82831 2.16051,0.0371 -6.71875,4.71875 -9.12821,4.8129 -16.89588,10.60442 -15.78125,11.75 0.32793,0.33704 2.35293,-0.78922 4.5,-2.5 5.70264,-4.54387 11.27315,-7.63488 17.875,-9.90625 7.28884,-2.50773 8.2702,-1.98808 1.53125,0.8125 -7.70307,3.20125 -25.75426,16.1875 -22.5,16.1875 0.44851,0 4.45702,-2.63445 8.90625,-5.84375 7.51828,-5.42307 23.11264,-12.9811 24.3125,-11.78125 0.28988,0.28989 -2.01701,1.65675 -5.125,3.03125 -8.05192,3.56094 -25.625,15.32124 -25.625,17.15625 0,1.33791 0.43148,1.30418 3.0625,-0.25 1.67055,-0.98682 4.48305,-3.10489 6.25,-4.71875 1.76695,-1.61386 3.4125,-2.90045 3.6875,-2.84375 0.275,0.0567 3.74569,-1.48935 7.6875,-3.4375 7.91242,-3.91053 11.92334,-4.10503 5.75,-0.28125 -2.15258,1.33331 -4.3875,2.65084 -4.9375,2.9375 -4.51971,2.3557 -13.52313,9.03125 -12.1875,9.03125 1.28297,0 7.50728,-3.07561 9.6875,-4.78125 3.07518,-2.4058 12.01141,-6.97342 17.3125,-8.84375 3.49089,-1.23166 3.78863,-1.20178 2.6875,0.125 -0.68394,0.8241 -1.64875,1.5 -2.15625,1.5 -1.28309,0 -15.08354,9.39829 -16.75,11.40625 -2.61444,3.1502 -0.32991,2.6262 3.53125,-0.8125 4.95292,-4.41101 13.1682,-9.41305 18.5,-11.25 6.69624,-2.30704 5.57095,-0.85531 -2.4375,3.15625 -8.40877,4.21209 -13.5407,7.94996 -12.4375,9.0625 0.40913,0.41259 1.53413,0.0726 2.5,-0.75 4.95932,-4.22364 19.86099,-11.31345 20.75,-9.875 0.30365,0.49132 -2.00264,1.84347 -5.09375,3 -7.01863,2.626 -14.45847,7.69165 -13.8125,9.375 0.30603,0.79752 -2.45088,2.67774 -7.40625,5.09375 l -7.875,3.84375 -5.15625,-3.5625 c -3.11062,-2.13973 -7.01438,-3.87102 -9.75,-4.28125 -5.89729,-0.88435 -14.88242,0.18465 -17.84375,2.125 -1.63078,1.06856 -3.84021,1.38072 -7.40625,1.03125 -2.79543,-0.27395 -5.31099,-0.11376 -5.59375,0.34375 -0.58649,0.94896 5.12774,2.0462 10.6875,2.0625 2.0625,0.006 3.75,0.48125 3.75,1.03125 0,0.57143 -3,1 -7,1 -4.58957,0 -7,0.37454 -7,1.125 0,0.80372 1.92832,0.98649 6.46875,0.5625 8.3335,-0.7782 9.51125,0.82783 1.28125,1.75 -9.87908,1.10695 -16.28987,2.67953 -14.65625,3.59375 0.78994,0.44208 7.4433,-0.28713 14.9375,-1.625 14.58617,-2.60394 19.96875,-2.97457 19.96875,-1.40625 0,0.55 -2.1375,0.99991 -4.75,1 -4.74091,1.7e-4 -18.06996,2.20338 -23.75,3.9375 -1.65,0.50375 -5.58009,1.43584 -8.75,2.0625 -3.16991,0.62665 -5.5244,1.49351 -5.25,1.9375 0.2744,0.44399 3.41699,0.26707 7,-0.40625 7.34074,-1.37948 8.70855,-0.52511 2.25,1.40625 -5.55334,1.66066 -13.45621,5.68951 -16.125,8.21875 -1.64597,1.55991 -0.67478,1.32847 4.375,-1.0625 7.47098,-3.53736 25.13767,-10.09875 27.15625,-10.09375 0.7489,0.002 -3.28342,2.30851 -8.9375,5.125 -10.31907,5.14026 -20.21875,12.76354 -20.21875,15.5625 0,0.87244 1.86676,-0.41741 4.4375,-3.0625 4.20555,-4.3272 22.5625,-14.57339 22.5625,-12.59375 0,0.45785 -0.8564,1.10429 -1.90625,1.4375 -3.17591,1.00799 -15.0665,13.56983 -15.0625,15.90625 0.0033,1.8499 0.2353,1.74232 1.875,-0.875 3.13919,-5.01087 16.50144,-16.5 19.1875,-16.5 0.33236,0 -4.51497,5.20485 -10.75,11.5625 -10.29992,10.50245 -13.12612,14.4375 -10.34375,14.4375 0.55,0 1,-0.43888 1,-0.96875 0,-1.21033 12.13543,-14.23954 12.71875,-13.65625 0.2359,0.23591 -1.16305,2.64412 -3.125,5.375 -3.63874,5.06487 -5.71765,11.25 -3.78125,11.25 0.57505,0 1.33206,-1.3192 1.6875,-2.9375 0.6962,-3.16976 10.26312,-17.0625 11.75,-17.0625 0.49551,0 -0.06107,1.3117 -1.21875,2.9375 -3.84837,5.40454 -7.88131,16.0625 -6.09375,16.0625 0.57658,0 1.32397,-1.2375 1.6875,-2.75 1.16183,-4.83401 4.48618,-10.56706 10.125,-17.5 3.01952,-3.7125 5.6624,-6.75 5.875,-6.75 0.74636,0 0.36931,0.84754 -0.9375,2.15625 -0.72573,0.72679 -3.38321,4.13408 -5.90625,7.5625 -3.76789,5.11997 -4.76914,7.44224 -5.65625,13 -0.66867,4.18923 -0.73513,8.11436 -0.1875,10.28125 0.80671,3.192 0.87535,2.94705 0.96875,-2.71875 0.13423,-8.14643 3.17079,-16.05294 8.25,-21.46875 2.95808,-3.15412 3.60687,-3.54292 2.375,-1.46875 -2.70235,4.55008 -5.53125,13.63881 -5.53125,17.8125 0,5.97561 1.66143,4.52212 2.25,-1.96875 0.54263,-5.98427 4.2371,-14.69765 7.3125,-17.25 1.56968,-1.30272 1.66839,-1.13688 1,1.90625 -1.22123,5.56024 -2.05429,13.48722 -1.71875,16.40625 0.49895,4.34062 2.15625,2.12492 2.15625,-2.875 0,-5.04564 1.8259,-13.13461 3.125,-13.9375 0.46825,-0.28937 0.64658,3.18878 0.40625,7.75 -0.51685,9.80958 0.46814,7.32411 3.03125,-7.6875 0.93908,-5.5 2.13733,-10.675 2.65625,-11.5 0.67779,-1.07756 0.74745,-0.79594 0.3125,1 -1.86423,7.69754 -1.74925,12.61736 0.375,16.78125 1.17706,2.30722 2.39262,4.21875 2.6875,4.21875 0.29488,0 0.38731,-2.57492 0.21875,-5.71875 -0.25677,-4.78884 -0.02863,-5.79443 1.4375,-6.09375 1.53524,-0.31343 1.78455,0.54414 1.84375,6.96875 l 0.0625,7.34375 1.46875,-5 c 0.80739,-2.75 1.60555,-8.44369 1.78125,-12.65625 0.43116,-10.33736 2.37224,-13.61693 9.90625,-16.625 8.15342,-3.25538 18.46582,-5.81575 19.40625,-4.8125 0.44112,0.47059 0.27413,1.04851 -0.375,1.28125 -4.07497,1.46108 -22.34375,17.27359 -22.34375,19.34375 0,1.93299 1.92798,0.80317 10.625,-6.15625 8.64246,-6.91577 14.375,-10.60973 14.375,-9.28125 0,0.36078 -3.10629,3.73658 -6.9375,7.5 -6.62344,6.50626 -11.66498,13.92877 -10.34375,15.25 0.33619,0.3362 1.96968,-1.2944 3.625,-3.625 3.46597,-4.87988 14.7322,-16.71875 15.90625,-16.71875 0.43472,0 -1.26108,2.50678 -3.75,5.5625 -5.23896,6.43204 -10.03719,15.45118 -11.03125,20.75 -1.10571,5.89391 0.98444,4.34024 4.09375,-3.0625 3.58941,-8.54579 6.29811,-12.87824 10.84375,-17.21875 3.90306,-3.72692 4.18897,-3.63274 2.53125,0.65625 -1.45638,3.76808 -5.9375,19.07232 -5.9375,20.3125 0,2.61065 1.73323,0.46293 3.40625,-4.25 3.92773,-11.06452 7.65402,-18.8725 14.15625,-29.59375 3.73093,-6.15177 3.92327,-6.30573 7.21875,-5.6875 3.8971,0.7311 8.49741,-1.60154 7.625,-3.875 -0.65096,-1.69637 1.20132,-3.05704 2.125,-1.5625 0.70268,1.13695 -2.7993,9.4131 -4.40625,10.40625 -0.52953,0.32727 -1.24829,0.12147 -1.59375,-0.4375 -0.98147,-1.58805 -4.53125,-1.19798 -4.53125,0.5 0,0.83679 1.08473,3.19929 2.40625,5.25 1.32153,2.05071 2.73306,4.83555 3.125,6.15625 0.61426,2.06981 0.45166,2.26596 -1.15625,1.59375 -1.02597,-0.42893 -2.93859,-0.99873 -4.25,-1.28125 -2.18193,-0.47006 -2.32828,-0.25046 -1.90625,2.625 0.25363,1.72825 0.21143,3.15625 -0.0625,3.15625 -1.64221,0 -4.15625,-3.74124 -4.15625,-6.1875 0,-2.42572 0.27614,-2.74107 1.75,-1.96875 1.95816,1.0261 6.25,-0.2239 6.25,-1.8125 0,-0.55725 -1.125,-1.27989 -2.5,-1.625 -2.76532,-0.69405 -3.02805,-1.56338 -1.40625,-4.59375 0.71558,-1.33707 0.76855,-2.3877 0.125,-3.03125 -1.78639,-1.78639 -9.24748,10.6535 -10.6875,17.8125 -1.60821,7.99519 -1.42206,16.40625 0.375,16.40625 0.37334,0 0.7347,-0.84194 0.8125,-1.875 0.24866,-3.30102 2.21889,-9.64972 3.53125,-11.40625 0.90819,-1.21558 1.67771,-1.40932 2.75,-0.71875 1.30325,0.83932 1.29595,0.95545 -0.125,0.96875 -1.42508,0.0133 -1.72184,2.25027 -2.28125,17.28125 -0.35311,9.4875 -1.07238,24.45 -1.59375,33.25 -0.52138,8.8 -1.15796,27.925 -1.4375,42.5 -0.43342,22.59827 -0.74704,26.67025 -2.09375,27.65625 -1.15374,0.84472 -1.39947,2.06875 -0.9375,4.53125 0.48013,2.5593 0.13381,4.00241 -1.4375,6 -3.22209,4.09623 -2.70038,5.4468 2.0625,5.375 3.19548,-0.0482 4.46745,-0.59964 5.6875,-2.4375 1.57189,-2.36787 1.5693,-2.37843 -1.71875,-1.65625 -2.8653,0.62933 -3.2448,0.48255 -2.9375,-1.125 0.30433,-1.59202 1.50286,-1.90628 8.59375,-2.15625 7.81894,-0.27564 8.21875,-0.16808 8.21875,1.84375 0,1.82486 -0.37928,2.02377 -2.90625,1.46875 -1.97202,-0.43313 -3.77725,-0.0975 -5.5,1.03125 -5.27302,3.45502 -2.0774,5.8298 7.90625,5.8125 12.01339,-0.0208 17.50174,-0.65859 18.71875,-2.125 1.07654,-1.29715 1.32673,-1.1823 1.8125,0.875 l 0.5625,2.40625 2.75,-2.75 c 1.51263,-1.5125 2.9288,-2.75 3.125,-2.75 0.1962,0 0.87184,1.4625 1.5,3.25 l 1.125,3.25 1.84375,-2.40625 c 1.51519,-1.99462 2.78711,-2.45306 7.5,-2.59375 3.12388,-0.0933 5.90762,0.20339 6.1875,0.65625 1.08467,1.75502 3.40897,0.70584 4.9375,-2.25 2.05774,-3.97924 1.26398,-4.71494 -2.1875,-2 -2.39304,1.88237 -2.83722,1.97685 -3.59375,0.625 -0.66544,-1.18908 -1.31704,-1.30034 -2.8125,-0.5 -1.17607,0.62944 -1.96875,0.63949 -1.96875,0.0625 0,-1.38263 -13.79962,-4.29667 -17,-3.59375 -3.41681,0.75046 -9.20971,-2.50742 -10.84375,-6.09375 -2.28556,-5.01625 -3.54935,-22.23923 -3.59375,-48.90625 -0.0247,-14.85 -0.70389,-34.79327 -1.5,-44.3125 -1.19738,-14.3174 -1.20383,-17.85921 -0.125,-20.5 0.71727,-1.75577 1.2803,-4.05378 1.25,-5.09375 -0.0303,-1.03997 0.83187,-3.64529 1.9375,-5.8125 1.86171,-3.64924 1.90523,-4.13496 0.4375,-6.375 -1.80408,-2.75338 -1.96337,-2.79946 -4.625,-1.375 -3.00709,1.60935 -4.30339,-2.71965 -1.78125,-5.9375 1.02809,-1.31167 1.84375,-2.99917 1.84375,-3.75 0,-0.75083 0.45,-1.34375 1,-1.34375 1.51874,0 1.19454,2.59366 -0.5,4 -1.98294,1.6457 -1.89602,2.90381 0.25,3.65625 0.9625,0.33748 2.49285,1.53212 3.375,2.625 2.46471,3.05353 4.16596,1.82114 2.34375,-1.6875 -1.59177,-3.06493 -1.18681,-4.71806 0.6875,-2.84375 1.18826,1.18826 2.51895,13.2506 3.03125,27.375 0.20871,5.75423 0.70293,8.46936 1.4375,8.1875 0.69908,-0.26824 1.3197,2.0391 1.71875,6.3125 0.56643,6.06578 1.85418,9.52082 3.09375,8.28125 0.25325,-0.25325 0.0231,-2.47742 -0.53125,-4.9375 -0.5544,-2.46009 -1.0406,-9.64375 -1.0625,-15.96875 -0.0359,-10.34767 -0.85425,-18.3163 -2.40625,-23.25 -0.30277,-0.9625 -0.12109,-1.75 0.40625,-1.75 3.17754,0 6.07805,19.63664 6.15625,41.75 0.0188,5.31321 0.41692,8.25 1.125,8.25 0.7759,0 0.99663,-6.30004 0.75,-21.40625 -0.1922,-11.77276 -0.0484,-21.21139 0.34375,-20.96875 1.68218,1.04084 2.8326,8.83621 3.3125,22.375 0.6469,18.25001 1.35453,26.1659 2.46875,27.96875 0.51176,0.82805 0.7941,-7.97885 0.65625,-21.21875 -0.12963,-12.44973 0.10373,-22.42048 0.53125,-22.15625 1.83017,1.1311 2.76895,9.06946 3.1875,26.59375 0.24566,10.28534 0.76275,19.19512 1.125,19.78125 1.66187,2.68896 2.03782,-0.54359 0.9375,-8.15625 -1.0849,-7.50597 -0.98119,-16.56442 0.21875,-17.78125 1.69874,-1.72264 2.92813,5.49167 4.34375,25.4375 l 0.71875,10.03125 0.125,-12 c 0.19602,-16.79193 -1.71966,-31.73957 -5.40625,-42 -0.50428,-1.4035 -0.41089,-1.70175 0.34375,-1 1.53609,1.42842 7.05447,20.48226 8.78125,30.375 0.80459,4.60954 1.4375,11.24704 1.4375,14.75 0,3.57934 0.43801,6.375 1,6.375 0.99623,0 1.53148,-9.39615 1.21875,-22 -0.178,-7.17404 -0.0442,-7.1045 2.3125,1.25 1.09194,3.87097 2.02304,5.53593 2.8125,5.0625 0.69795,-0.41854 0.63717,-0.0412 -0.15625,0.9375 -0.73485,0.90648 -1.13442,2.0009 -0.875,2.4375 0.25941,0.43659 0.77987,4.4125 1.15625,8.8125 0.37639,4.4 0.9474,9.01814 1.25,10.28125 1.03039,4.30103 1.74896,1.11948 1.4375,-6.34375 -0.20403,-4.88887 0.0666,-7.4375 0.78125,-7.4375 0.59853,0 1.0625,0.87331 1.0625,1.9375 0,1.0642 0.54888,3.2017 1.1875,4.75 0.63861,1.54831 1.3022,4.1625 1.5,5.8125 0.64225,5.35721 1.35246,7.58596 2.25,7.03125 0.49049,-0.30314 0.33367,-2.95141 -0.375,-6 -0.69915,-3.00764 -1.08657,-5.66343 -0.875,-5.875 0.99258,-0.99258 -3.0648,-22.08571 -5.75,-29.90625 -1.65728,-4.82677 -2.77368,-9.19411 -2.46875,-9.6875 0.54667,-0.88451 -3.20925,-15.96218 -5.3125,-21.3125 -0.59458,-1.5125 -0.73411,-2.75 -0.28125,-2.75 1.32503,0 3.9345,6.84843 6.0625,16 2.34859,10.10029 4.89681,17.46865 5,14.40625 0.0387,-1.15009 -0.57017,-4.2945 -1.375,-6.96875 -1.54734,-5.14144 -1.26893,-7.51136 0.375,-3.1875 1.40365,3.69189 3.85771,16.21512 4.65625,23.75 0.37888,3.575 1.06786,7.175 1.5625,8 0.85681,1.42907 0.51695,-5.26201 -0.75,-14.15625 -0.57364,-4.02711 1.08069,-6.13879 2.15625,-2.75 0.37341,1.17652 1.74122,8.06228 3.0625,15.28125 l 2.40625,13.125 -0.5,-9.21875 c -0.27228,-5.06188 -0.72639,-11.81188 -1,-15 l -0.46875,-5.78125 1.875,5.5 c 1.03139,3.025 2.18432,8.3125 2.5625,11.75 0.37818,3.4375 1.12244,6.25 1.6875,6.25 0.56506,0 0.81106,-0.61459 0.53125,-1.34375 -0.88868,-2.31586 -1.96804,-14.65625 -1.28125,-14.65625 0.36242,0 1.95877,2.70625 3.53125,6.03125 3.17145,6.70603 4.40455,6.055 2.46875,-1.3125 -0.69084,-2.62929 -1.57787,-8.25429 -1.96875,-12.5 -0.39088,-4.24571 -0.80719,-8.74912 -0.9375,-10 -0.13031,-1.25088 0.0762,-2.47613 0.46875,-2.71875 0.66836,-0.41307 2.0771,5.10391 3.5,13.75 0.33943,2.0625 1.09997,3.75 1.6875,3.75 1.02072,0 0.77024,-3.40718 -0.875,-12.90625 -0.82171,-4.74434 1.25558,-3.20159 2.1875,1.625 0.62541,3.23916 0.84608,3.48701 1.53125,1.6875 0.4438,-1.16558 0.26072,-5.03449 -0.4375,-8.75 -0.68838,-3.66331 -1.0138,-6.66525 -0.6875,-6.65625 0.3263,0.009 2.12882,1.38204 4,3.03125 4.43516,3.90902 5.13612,3.04251 1.40625,-1.75 -5.67591,-7.29296 -5.00456,-10.22692 1.21875,-5.28125 5.89313,4.68327 5.36905,3.56491 -1.84375,-3.90625 -3.66523,-3.79652 -6.6875,-7.26315 -6.6875,-7.6875 0,-0.82688 0.0294,-0.80612 13.28125,11.03125 4.82512,4.31009 9.03867,7.55509 9.375,7.21875 0.33633,-0.33633 -4.66955,-5.80942 -11.125,-12.1875 l -11.71875,-11.59375 7.34375,3.6875 c 4.04399,2.03451 9.95661,5.73212 13.125,8.21875 3.1684,2.48663 6.04548,4.23577 6.40625,3.875 0.36077,-0.36077 0.47916,-0.81255 0.25,-1 -1.95703,-1.60072 -14.57756,-10.84731 -18.5,-13.5625 -2.71096,-1.87657 -4.39919,-3.59351 -3.75,-3.8125 0.64919,-0.21899 5.59919,1.44442 11,3.71875 5.40081,2.27434 10.7125,4.42088 11.8125,4.75 1.72181,0.51515 1.83073,0.35684 0.71875,-1 -1.85998,-2.26953 -11.14079,-6.45466 -20.5625,-9.28125 -7.97181,-2.3916 -8.04242,-2.4168 -2.65625,-1.8125 5.55473,0.62322 14.53061,2.77151 23.25,5.59375 2.6125,0.84563 4.75,1.18292 4.75,0.75 0,-2.50953 -13.03271,-7.11461 -25.5,-9.03125 -3.85,-0.59188 -7.39883,-1.4959 -7.90625,-2 -1.36332,-1.35441 21.85114,-0.035 28.5625,1.625 6.70721,1.65901 6.84375,1.67107 6.84375,0.4375 0,-2.1408 -10.83342,-4.14076 -25,-4.625 -14.98193,-0.51212 -23.47285,-1.2459 -22.75,-1.96875 0.22857,-0.22858 7.35942,-0.721 15.84375,-1.0625 12.35794,-0.49742 16.27403,-0.29407 19.6875,0.90625 4.65985,1.6386 7.07428,0.37162 2.5625,-1.34375 -5.72692,-2.17737 -33.34375,-5.38819 -33.34375,-3.875 0,0.76236 6.26383,1.39124 11.75,1.1875 0.6875,-0.0255 1.25,0.35486 1.25,0.84375 0,0.48889 -5.7375,0.883 -12.75,0.875 -8.60146,-0.0103 -12.26194,-0.31479 -11.25,-0.96875 0.825,-0.53316 3.18871,-0.992 5.21875,-1 3.73727,-0.0155 5.86718,-1.4146 3.5625,-2.34375 -0.69093,-0.27856 3.44375,-0.5649 9.21875,-0.625 8.19882,-0.0854 10.08319,-0.35404 8.59375,-1.21875 -1.23151,-0.71497 -5.12965,-0.90553 -11,-0.53125 -9.52699,0.60742 -10.0038,-0.57701 -0.65625,-1.625 2.98289,-0.33442 5.90789,-1.1227 6.5,-1.75 0.80258,-0.85026 -0.33731,-0.97988 -4.4375,-0.5 -3.025,0.35404 -10.675,0.67835 -17,0.71875 -14.32047,0.0916 -20.30985,-1.74054 -23.21875,-7.125 -1.03996,-1.925 -3.07847,-4.57091 -4.53125,-5.875 -2.30682,-2.07073 -3.33746,-2.30174 -8.1875,-1.84375 -8.03608,0.75886 -11.32076,2.71864 -19.8125,11.90625 -2.8875,3.12412 -5.25,5.45689 -5.25,5.1875 0,-2.01916 3.84827,-6.89901 8.71875,-11.09375 8.21266,-7.07322 13.14992,-9.93108 20.5625,-11.90625 7.39048,-1.96928 9.93955,-1.38758 16.5,3.84375 4.23565,3.37752 11.20301,7.14074 11.90625,6.4375 0.25913,-0.25913 -1.98869,-2.09496 -5,-4.09375 -6.61907,-4.39349 -8.68379,-6.5625 -6.25,-6.5625 0.90961,0 1.90511,0.65142 2.21875,1.46875 0.31364,0.81733 3.88923,3.3418 7.96875,5.59375 4.07953,2.25194 8.77469,5.22584 10.4375,6.625 1.6628,1.39916 3.31065,2.28311 3.65625,1.9375 1.18008,-1.18008 -3.92456,-5.49066 -10.78125,-9.09375 -7.51434,-3.94867 -9.19755,-5.53125 -5.875,-5.53125 1.19448,0 4.91996,2.06702 8.28125,4.59375 3.3613,2.52673 7.71707,5.44937 9.65625,6.5 1.93919,1.05062 4.76725,2.8876 6.28125,4.09375 1.80875,1.44096 3.07099,1.86651 3.71875,1.21875 0.64776,-0.64776 -0.94808,-2.36576 -4.65625,-4.96875 -7.37821,-5.17919 -12.97979,-10.14522 -12.25,-10.875 0.67331,-0.67332 19.86536,8.53836 24.15625,11.59375 1.58988,1.13209 3.18166,1.73369 3.5625,1.34375 1.32487,-1.35656 -7.0541,-7.40937 -13.40625,-9.6875 -3.51636,-1.2611 -6.40625,-2.69422 -6.40625,-3.1875 0,-1.19616 13.05273,0.0227 20,1.875 6.56841,1.75127 6,1.69229 6,0.5625 0,-1.37634 -5.37312,-2.90372 -16,-4.53125 l -9.5,-1.4375 12.9375,0.53125 c 7.10091,0.29476 13.92038,0.92449 15.1875,1.40625 1.27509,0.48477 2.55061,0.50557 2.84375,0.0312 0.69553,-1.12539 -1.31724,-1.84437 -7.4375,-2.65625 -2.7567,-0.36569 -5.03125,-0.99586 -5.03125,-1.40625 0,-0.92968 5.14231,-2 9.625,-2 1.86475,0 3.375,-0.52475 3.375,-1.15625 0,-0.82094 -2.88786,-0.98216 -10.25,-0.5625 l -10.25,0.59375 5.5625,-1.78125 c 3.05179,-0.97844 6.42679,-2.326 7.5,-3 1.80603,-1.13423 1.75141,-1.19569 -0.5625,-0.71875 -14.47071,2.98273 -14.02916,0.85742 0.5,-2.40625 5.5,-1.23545 11.2375,-2.45304 12.75,-2.71875 1.5125,-0.26572 2.75,-0.88742 2.75,-1.375 0,-1.09648 0.76346,-1.16928 -7.5,0.625 -11.20688,2.43339 -13.3906,2.59168 -7.5,0.53125 3.025,-1.05809 6.5125,-1.93515 7.75,-1.96875 1.2375,-0.0336 2.25,-0.56254 2.25,-1.15625 0,-0.68346 -1.19225,-0.84579 -3.25,-0.4375 -2.8263,0.5608 -2.53297,0.24676 2.25,-2.5625 3.025,-1.77672 4.96951,-3.43633 4.3125,-3.65625 -0.65701,-0.21992 -2.23201,0.17829 -3.5,0.875 -1.26799,0.69672 -2.7625,1.35766 -3.3125,1.46875 -6.34996,1.28255 -18.9216,5.49346 -26.90625,9 -5.4634,2.39931 -10.16079,4.15172 -10.40625,3.90625 -0.57565,-0.57565 20.92305,-11.04017 31.3125,-15.25 10.24006,-4.1493 18.76521,-9.05506 17.96875,-10.34375 -0.3708,-0.59997 -3.09951,0.34156 -6.78125,2.34375 -3.38998,1.84353 -7.7625,3.9633 -9.6875,4.71875 -1.925,0.75545 -8.675,3.82252 -15,6.8125 -18.88963,8.92961 -24.09609,11.2145 -23.5,10.25 0.70918,-1.14747 29.67236,-17.7095 38.75,-22.15625 3.7125,-1.8186 6.75,-3.6618 6.75,-4.09375 0,-1.76304 -1.21144,-1.20438 -24.0625,11.0625 -5.27075,2.82944 -10.59148,5.15625 -11.8125,5.15625 -2.12679,0 -14.60704,8.47826 -20.34375,13.8125 -1.50676,1.40107 -3.06293,2.21833 -3.4375,1.84375 C 187.53823,287.88198 192.05073,283.5687 200,278 c 3.98203,-2.78952 7.06756,-5.27618 6.84375,-5.5 -0.22382,-0.22381 -2.38005,0.46909 -4.78125,1.53125 -3.92225,1.735 -15.43432,12.42735 -19.25,17.875 -1.12359,1.60415 -2.94153,2.20035 -8.25,2.65625 -5.92824,0.50914 -14.54485,2.68607 -20.71875,5.25 -1.35156,0.56128 -1.69807,0.45112 -1.1875,-0.375 1.2544,-2.02965 -1.77258,-1.26523 -5.75,1.4375 -2.09544,1.42389 -4.03763,2.33737 -4.3125,2.0625 -0.27487,-0.27487 2.28546,-2.43536 5.65625,-4.8125 3.37078,-2.37714 5.64763,-4.49246 5.0625,-4.6875 -1.27902,-0.42634 -9.18109,4.0896 -11,6.28125 -1.67273,2.01558 -3.14997,2.01954 -2.375,0 0.33099,-0.86256 3.55413,-3.56256 7.1875,-6 5.48227,-3.67777 6.20108,-4.4375 4.09375,-4.4375 -1.39662,0 -3.05467,0.49217 -3.65625,1.09375 -0.60158,0.60158 -1.91658,0.92644 -2.9375,0.71875 -1.56369,-0.31812 -1.18094,-1.08775 2.4375,-4.8125 l 4.28125,-4.40625 10.59375,5.25 c 5.81346,2.89123 10.80379,5.00871 11.09375,4.71875 1.10802,-1.10801 -2.10483,-3.5144 -8.3125,-6.21875 -3.54758,-1.54549 -6.46875,-3.19158 -6.46875,-3.65625 0,-1.35048 3.9951,0.18972 11.25,4.3125 3.88097,2.20547 6.99331,3.41077 7.34375,2.84375 0.33479,-0.54171 0.47382,-1.08218 0.28125,-1.21875 -0.19258,-0.13657 -1.95,-1.24493 -3.875,-2.4375 l -3.5,-2.15625 2.78125,-0.0312 c 1.53016,-0.009 4.35468,0.64558 6.25,1.4375 2.04813,0.85576 3.68534,1.0597 4.03125,0.5 1.15093,-1.86225 -8.34017,-4.32981 -20.90625,-5.4375 -4.32017,-0.38081 -7.47017,-1.06069 -7,-1.5 2.26717,-2.11838 20.04014,-6.36106 31.84375,-7.59375 14.30673,-1.4941 17.5,-2.16005 17.5,-3.65625 0,-0.57214 -0.9627,-0.7021 -2.25,-0.3125 -1.2375,0.37453 -5.4,0.86863 -9.25,1.09375 l -7,0.40625 7.5,-1.9375 c 4.125,-1.06295 8.73871,-1.94625 10.21875,-1.96875 1.48004,-0.0225 2.94133,-0.48125 3.28125,-1.03125 0.37219,-0.60222 -0.93318,-1 -3.3125,-1 -4.26582,0 -22.57604,3.44431 -26.75,5.03125 -1.40589,0.53452 -3.0983,0.93385 -3.75,0.90625 -1.56376,-0.0662 23.46246,-8.53101 29.5625,-10 2.6125,-0.62913 4.75,-1.53611 4.75,-2.03125 0,-1.76003 -5.79298,-0.87121 -16.5,2.5625 -5.97103,1.91489 -11.03883,3.30493 -11.25,3.09375 -0.57532,-0.57531 8.72136,-3.88672 22.75,-8.09375 12.52725,-3.75677 14.93007,-4.78153 13.3125,-5.78125 -0.47735,-0.29502 -5.36067,1.00278 -10.84375,2.875 -5.48307,1.87222 -10.19375,3.3918 -10.46875,3.375 -0.275,-0.0168 3.05594,-1.85488 7.375,-4.0625 4.31905,-2.20762 7.66457,-4.21043 7.4375,-4.4375 -0.22708,-0.22708 -3.68643,0.52398 -7.6875,1.65625 -4.00106,1.13227 -7.47886,1.8649 -7.71875,1.625 -0.2399,-0.2399 3.63492,-2.15745 8.625,-4.25 5.55107,-2.3278 8.62054,-4.10174 7.875,-4.5625 -0.67019,-0.4142 -2.32782,-0.32945 -3.6875,0.1875 -1.35969,0.51698 -2.67948,0.75803 -2.9375,0.5 -0.25802,-0.25802 2.6032,-1.92239 6.375,-3.6875 8.48643,-3.97144 6.34877,-4.84324 -3.6875,-1.5 l -7.46875,2.46875 3.84375,-3.375 c 2.10977,-1.85721 5.93477,-4.3854 8.5,-5.625 3.25672,-1.57376 4.14112,-2.38198 2.90625,-2.65625 -1.55031,-0.34432 -16.41755,6.88186 -17.75,8.625 -0.27646,0.36168 -2.07541,1.49867 -4,2.53125 -13.76203,7.38365 -18,9.48466 -18,8.96875 0,-0.32466 5.20434,-5.52065 11.53125,-11.5625 6.3269,-6.04186 12.43565,-12.31111 13.59375,-13.9375 3.99009,-5.60356 0.82848,-4.22417 -6.375,2.78125 -6.94984,6.75875 -15.61792,14.07541 -18.75,15.875 -1.87055,1.07476 -1.3053,0.34171 8.5,-11.375 13.40613,-16.01946 13.63995,-17.54027 0.59375,-4.125 -19.6285,20.18377 -21.18745,22.47308 -28.25,42.0625 -0.79562,2.2068 -15.29258,17.9375 -16.53125,17.9375 -1.07857,0 1.26231,-4.92339 4.34375,-9.15625 3.62006,-4.97275 4.29127,-7.41994 1.8125,-6.46875 -0.84199,0.3231 0.058,-1.4879 2,-4.03125 5.10259,-6.68265 4.51237,-8.72307 -0.96875,-3.34375 -2.475,2.42903 -4.5,3.96288 -4.5,3.40625 0,-0.55662 1.53308,-2.49695 3.40625,-4.3125 3.66035,-3.54775 10.10908,-12.09375 9.125,-12.09375 -0.32852,0 -1.70685,0.70549 -3.0625,1.59375 -4.65404,3.04944 -2.30266,-0.095 3.625,-4.875 5.58845,-4.50642 7.21664,-6.71875 4.9375,-6.71875 -0.54872,0 -3.2879,1.63165 -6.0625,3.625 -7.70575,5.53603 -7.02759,3.25134 0.96875,-3.28125 6.36561,-5.20038 8.25571,-7.34375 6.46875,-7.34375 -0.33346,0 -4.49596,3.03762 -9.25,6.75 -4.75403,3.71239 -8.99375,6.63739 -9.40625,6.5 -0.4125,-0.13738 -0.6513,0.0875 -0.5625,0.5 0.0888,0.4125 -0.36118,2.01419 -1,3.5625 -0.63881,1.5483 -1.1875,3.93776 -1.1875,5.3125 0,2.81913 -3.45493,11.55683 -6.09375,15.40625 -0.95994,1.40034 -1.66845,3.20034 -1.59375,4 0.19749,2.11378 -3.27599,12.82078 -4.375,13.5 -0.51392,0.31763 -0.9375,1.49005 -0.9375,2.59375 0,1.1037 -0.50625,2.93761 -1.125,4.09375 -1.12333,2.09896 -1.09993,2.10173 -2.4375,-0.3125 -1.54817,-2.79434 -1.81158,-8.73817 -0.53125,-12.09375 0.48583,-1.27331 2.69712,-4.77148 4.9375,-7.75 2.24037,-2.97853 3.84556,-5.79199 3.5625,-6.25 -0.28307,-0.45801 0.20563,-1.80791 1.0625,-3.03125 2.47228,-3.52967 2.00425,-5.54253 -0.71875,-3.15625 -8.09033,7.08989 -7.54204,5.01294 1.75,-6.625 4.125,-5.16641 7.5,-10.00254 7.5,-10.75 0,-0.77496 -1.10892,-0.16244 -2.59375,1.4375 -0.90798,0.97837 -1.42621,1.49373 -1.53125,1.53125 0.0552,-0.17349 0.67583,-1.06564 1.90625,-2.71875 4.43388,-5.95704 7.2237,-10.81257 7.1875,-12.5 -0.0203,-0.94557 -0.94984,-0.39115 -2.5,1.5 -1.35248,1.65 -2.4345,2.66932 -2.4375,2.28125 -0.007,-1.02367 8.00778,-12.328 8.53125,-12.03125 0.24261,0.1375 0.39875,-0.0875 0.34375,-0.5 -0.32671,-2.45032 -6.31027,2.22461 -12,9.375 -2.79114,3.50767 -5.18226,6.375 -5.34375,6.375 -0.16149,0 1.70676,-4.0032 4.1875,-8.875 2.48075,-4.87181 4.31137,-9.47212 4.0625,-10.21875 -0.25589,-0.76765 -2.97055,2.44656 -6.25,7.375 -3.18961,4.79343 -5.9979,8.71875 -6.25,8.71875 -0.25211,0 -0.14375,-1.4625 0.25,-3.25 2.56088,-11.62546 2.15848,-23.33786 -0.5,-14.59375 -0.72689,2.39083 -1.90678,5.68549 -2.625,7.34375 -0.71822,1.65825 -1.77409,4.32573 -2.375,5.90625 -1.51002,3.97165 -2.12706,2.85921 -1.0625,-1.9375 1.55213,-6.99357 1.99745,-13.92428 1,-15.46875 -0.80599,-1.248 -0.95485,-1.164 -1.03125,0.5 -0.10301,2.24372 -0.27254,2.88834 -2.28125,10.09375 -0.78381,2.8116 -1.96367,5.9616 -2.625,7 -1.14899,1.80409 -1.16069,1.81737 -0.5,-0.0937 1.00078,-2.89481 2.10136,-20.60621 1.3125,-21.09375 -0.79374,-0.49056 -2.875,5.11391 -2.875,7.75 0,1.01793 -0.37155,1.84375 -0.84375,1.84375 -0.4722,0 -1.4597,-3.49524 -2.1875,-7.75 -0.73894,-4.31988 -1.11295,-6.14559 -1.46875,-6.25 -0.0267,-0.008 -0.0675,-0.0113 -0.0937,0 z m 4.78125,70.9375 c 0.0314,10e-4 0.0824,0.023 0.125,0.0625 1.103,1.02238 4.68701,11.57753 4.6875,13.78125 2.7e-4,1.25685 0.65706,3.28185 1.4375,4.5 1.13494,1.77146 5.5625,14.01884 5.5625,15.375 0,1.35616 -2.19411,-0.099 -2.875,-1.90625 -0.46622,-1.2375 -1.86732,-4.725 -3.09375,-7.75 -2.51125,-6.19398 -6.81611,-24.09886 -5.84375,-24.0625 z m -10.46875,7.0625 c 0.43815,0.009 2.58125,1.02155 4.78125,2.25 2.94854,1.64643 4.77707,3.77192 6.90625,8.03125 1.58865,3.17802 2.71365,5.90539 2.5,6.0625 -0.21365,0.15711 -3.67435,-3.45862 -7.6875,-8.03125 -4.01315,-4.57263 -6.93815,-8.3215 -6.5,-8.3125 z m 35.71875,6.375 c 0.93358,-0.20772 0.89858,1.90148 -0.46875,5.5 -1.02334,2.69322 -2.84379,8.88056 -4.03125,13.75 -1.18746,4.86943 -2.46437,9.45338 -2.84375,10.15625 -1.50923,2.79612 -1.67081,-0.18686 -0.4375,-7.9375 1.46021,-9.17661 3.63085,-16.36304 5.9375,-19.65625 0.80224,-1.14537 1.4194,-1.71808 1.84375,-1.8125 z m 7.375,13.625 c 1.45727,0.0132 1.48019,0.1646 0.1875,1 -1.95837,1.2656 -3.28218,1.2656 -2.5,0 0.33992,-0.55 1.38246,-1.008 2.3125,-1 z m -32.15625,1.03125 c 0.62015,-0.0175 1.65906,0.64375 2.34375,1.46875 1.58079,1.90474 0.96242,1.91737 -1.53125,0.0312 -1.06762,-0.8075 -1.43266,-1.4825 -0.8125,-1.5 z M 167.5,306.96875 c 0.18045,-0.0133 0.35132,-0.006 0.53125,0 0.86368,0.0308 1.75772,0.28866 3,0.71875 2.55942,0.8861 4.04697,2.19255 4.9375,4.375 l 1.28125,3.125 -3.75,0.65625 c -11.02284,1.89845 -18.96341,3.75185 -21.4375,5.03125 -1.52913,0.79075 -4.01502,1.8821 -5.53125,2.40625 -2.36014,0.81588 -2.49027,0.76764 -0.84375,-0.28125 1.05778,-0.67384 4.15465,-3.56649 6.875,-6.4375 2.72035,-2.87101 7.16101,-6.33506 9.875,-7.6875 2.44346,-1.21762 3.79934,-1.81325 5.0625,-1.90625 z m 10.8125,10.3125 c 3.26464,0.003 6.94729,0.31128 7.9375,0.9375 0.80907,0.51167 1.25907,1.08259 1,1.25 -1.08355,0.70016 -13.56547,-0.38055 -14.4375,-1.25 -0.62771,-0.62588 2.23536,-0.94084 5.5,-0.9375 z M 178.25,320 l 0,4.125 c 0,2.2753 0.44394,4.15625 0.96875,4.15625 0.52483,0 0.74646,-1.575 0.5,-3.5 -0.25003,-1.95286 0.008,-3.5 0.5625,-3.5 1.06803,0 1.41973,2.55703 1.0625,7.75 -0.12296,1.7875 0.0273,3.25 0.34375,3.25 0.31643,0 1.21829,-1.4625 2,-3.25 l 1.40625,-3.25 0.0937,3.75 c 0.0451,2.07292 0.59408,3.75 1.21875,3.75 1.15941,0 0.76419,-6.47727 -0.625,-10.5 -0.48872,-1.41519 0.088,-1.12278 1.90625,1 2.42805,2.83469 5.5625,10.2677 5.5625,13.15625 0,2.17125 -3.17907,1.47662 -8.46875,-1.84375 -2.73908,-1.71935 -7.71154,-4.34028 -11.0625,-5.84375 -6.69067,-3.0019 -11.00645,-2.91354 -20.96875,0.46875 -2.61077,0.88638 -4.94979,1.42521 -5.1875,1.1875 -0.23771,-0.23771 0.79526,-1.55962 2.28125,-2.9375 3.42862,-3.17919 14.06102,-6.75067 22.15625,-7.4375 L 178.25,320 z m -55.40625,4.40625 c 0.2879,-0.0694 0.71985,0.46974 1.03125,1.28125 0.35589,0.92744 0.4,1.88125 0.125,2.15625 -0.275,0.275 -0.76911,-0.22881 -1.125,-1.15625 -0.35589,-0.92744 -0.43125,-1.9125 -0.15625,-2.1875 0.0344,-0.0344 0.0839,-0.0838 0.125,-0.0937 z m -11.0625,1 c 1.36272,-0.0516 1.79738,0.55821 2.5,2.40625 0.58677,1.54334 0.66205,3.1817 0.1875,3.65625 -0.47075,0.47075 -3.78751,1.68389 -7.40625,2.71875 -3.61873,1.03487 -7.64405,2.22685 -8.9375,2.625 -1.29346,0.39819 -2.05988,0.39487 -1.6875,0 0.37238,-0.39488 3.94461,-1.71826 7.9375,-2.9375 7.59004,-2.31765 10.2107,-4.63555 5.21875,-4.59375 -2.38659,0.02 -6.07737,1.32824 -16.25,5.71875 -0.78298,0.33793 -0.40786,-0.40464 0.84375,-1.65625 2.59225,-2.59225 11.16863,-6.74623 15.875,-7.6875 0.70068,-0.14014 1.26451,-0.23282 1.71875,-0.25 z m 81.21875,0 c 0.34605,-0.0479 0.92483,0.37734 1.71875,1.4375 1.62748,2.17326 4.06157,11.90533 5.5,22.0625 0.5295,3.74222 0.76834,6.98166 0.53125,7.21875 -0.73011,0.73012 -1.86266,-3.637 -4.03125,-15.6875 -0.82546,-4.58693 -2.20837,-9.69207 -3.0625,-11.34375 -1.12789,-2.18111 -1.233,-3.60765 -0.65625,-3.6875 z M 145.125,326.5 c 0.38362,-0.0472 0.70063,0.0131 0.875,0.1875 0.25136,0.25135 0.17503,0.94466 -0.1875,1.53125 -0.79781,1.29088 -3.5625,1.40804 -3.5625,0.15625 0,-0.76027 1.72413,-1.73337 2.875,-1.875 z m -26.78125,5.78125 c 1.16375,0 1.90861,0.52417 1.6875,1.1875 -0.48711,1.46134 -2.16728,2.08272 -3.09375,1.15625 -1.3041,-1.3041 -0.67107,-2.34375 1.40625,-2.34375 z m 82.875,2 c 0.53065,0 1.41004,0.79568 1.9375,1.78125 1.48635,2.77726 3.3278,17.80233 3.3125,27.03125 -0.008,4.57777 -0.29859,8.57985 -0.625,8.90625 -0.3264,0.32641 -0.59375,-1.49786 -0.59375,-4.0625 0,-2.56464 -1.09658,-9.94172 -2.46875,-16.40625 -2.66777,-12.56827 -3.10824,-17.25 -1.5625,-17.25 z m -50.4375,0.1875 c 3.54419,-0.0121 7.94976,3.96069 11.375,10.5625 1.85182,3.5692 -1.30513,2.3379 -7.6875,-3 -1.80844,-1.5125 -3.87798,-2.75 -4.625,-2.75 -1.88845,0 -2.93945,-3.16358 -1.375,-4.15625 0.70055,-0.44451 1.49461,-0.65346 2.3125,-0.65625 z m 9.6875,2.9375 c 0.0716,-0.0409 0.23032,0.009 0.46875,0.15625 0.54349,0.33589 2.28883,2.54466 3.875,4.90625 1.58618,2.36158 4.59493,6.224 6.6875,8.5625 2.09256,2.3385 4.31146,5.376 4.9375,6.75 1.10267,2.42009 2.8125,3.4109 2.8125,1.625 0,-1.56169 -2.9367,-7.97522 -3.9375,-8.59375 -0.53432,-0.33023 -0.6811,-1.30839 -0.34375,-2.1875 0.39589,-1.03169 1.89118,1.58955 4.21875,7.4375 3.96611,9.96475 5.0859,11.77019 5.0625,8.125 -0.009,-1.32917 -1.77647,-6.39543 -3.9375,-11.25 -2.16104,-4.85458 -3.31075,-8.3085 -2.5625,-7.6875 2.16017,1.79278 10.16997,21.05187 10.9375,26.28125 0.38344,2.6125 0.4337,4.75 0.125,4.75 -0.3087,0 -0.5625,-0.60376 -0.5625,-1.3125 0,-1.23047 -7.66252,-10.47369 -16.0625,-19.375 -2.16324,-2.29235 -3.9375,-4.68479 -3.9375,-5.34375 0,-0.65896 -1.47497,-3.29507 -3.3125,-5.84375 -3.44316,-4.77571 -4.77881,-6.8228 -4.46875,-7 z m -111.84375,0.5 c 5.338439,0.0797 16.221821,2.53432 17.96875,4.28125 1.49268,1.49268 -3.7699,1.22526 -14.09375,-0.75 -8.46816,-1.6202 -10.06642,-2.58709 -5.78125,-3.40625 0.493216,-0.0943 1.143616,-0.13639 1.90625,-0.125 z m 24.5625,9.375 c 1.85044,0 1.84923,1.49898 0.03125,5.0625 -1.07643,2.10999 -1.96875,4.5293 -1.96875,5.34375 0,0.81446 -0.4849,1.77998 -1.09375,2.15625 -0.77233,0.47732 -0.91084,-0.33263 -0.4375,-2.6875 1.10104,-5.47771 2.65811,-9.875 3.46875,-9.875 z m 135.21875,2 c 1.08046,0 3.53942,8.59345 4.375,15.28125 0.42321,3.38722 0.28462,6.2402 -0.375,7.375 -0.59007,1.01515 -1.1333,1.61875 -1.1875,1.34375 -1.43277,-7.26627 -3.38928,-24 -2.8125,-24 z m -56.6875,8.4375 c 0.066,0.009 0.14073,0.11914 0.21875,0.3125 0.27741,0.6875 0.27741,1.8125 0,2.5 -0.27741,0.6875 -0.5,0.125 -0.5,-1.25 0,-0.85937 0.0845,-1.41345 0.21875,-1.53125 0.0201,-0.0177 0.0405,-0.0342 0.0625,-0.0312 z m -16.28125,0.875 c 0.73315,0.0608 1.28576,0.57603 1.59375,1.5 0.25403,0.76208 -0.79832,1.17665 -2.9375,1.15625 -3.16154,-0.0302 -3.23357,-0.12594 -1.375,-1.53125 1.07067,-0.80956 1.9856,-1.18584 2.71875,-1.125 z m -6.1875,4.8125 c 0.63438,0 1.26875,0.0617 1.75,0.1875 0.9625,0.25153 0.175,0.4375 -1.75,0.4375 -1.925,0 -2.7125,-0.18597 -1.75,-0.4375 0.48125,-0.12576 1.11562,-0.1875 1.75,-0.1875 z m 23.59375,1.15625 c 0.26254,-0.0794 0.40625,1.41483 0.40625,4.53125 0,2.84167 -0.44826,5.1875 -1,5.1875 -0.60957,0 -0.78262,-1.87495 -0.4375,-4.75 0.38819,-3.23388 0.76871,-4.88931 1.03125,-4.96875 z m -21.21875,1.84375 c 3.17954,0.0308 3.47349,1.1619 0.375,2.65625 -1.79137,0.86394 -1.89329,1.10235 -0.5,1.15625 2.18144,0.0844 2.30756,1.62396 0.1875,2.4375 -0.86998,0.33385 -2.10748,0.57465 -2.75,0.53125 -3.654,-0.24693 -5.20048,-2.90625 -1.6875,-2.90625 1.1,0 2,-0.40774 2,-0.90625 0,-0.49851 -0.95137,-0.65066 -2.125,-0.34375 -1.53576,0.40161 -1.98847,0.16502 -1.65625,-0.84375 0.27338,-0.83012 2.15396,-1.53663 4.625,-1.71875 0.57005,-0.042 1.07703,-0.0669 1.53125,-0.0625 z m -2.5,8.34375 c 2.74921,0.0704 4.90675,1.09325 3.9375,2.0625 -0.35115,0.35114 -2.51136,0.87885 -4.8125,1.1875 -3.63153,0.48709 -4.14867,0.32199 -3.84375,-1.21875 0.23326,-1.17861 1.41328,-1.83702 3.5,-2 0.40869,-0.0319 0.82601,-0.0413 1.21875,-0.0312 z m 23.59375,1 c 0.0576,-0.005 0.11902,0.0807 0.1875,0.25 0.27397,0.67703 0.31604,2.02703 0.0625,3 -0.25354,0.97297 -0.4796,0.43125 -0.5,-1.21875 -0.0153,-1.2375 0.0771,-2.01564 0.25,-2.03125 z m -25.375,4.53125 c 2.01956,0 2.95713,0.43126 2.6875,1.25 -0.46695,1.41787 -3.98836,2.19913 -5.0625,1.125 -1.48578,-1.48578 -0.5959,-2.375 2.375,-2.375 z m 3.75,4 c 2.51481,0 4.15625,1.40384 4.15625,3.5625 0,0.87556 -9.91009,0.37269 -10.46875,-0.53125 -0.81751,-1.32276 2.7645,-3.03125 6.3125,-3.03125 z m -0.40625,5.59375 c 3.76572,-0.13632 6.5625,0.783 6.5625,2.28125 0,0.45088 -2.925,0.9016 -6.5,1 -4.99793,0.13749 -6.5,-0.1394 -6.5,-1.21875 0,-0.93257 1.5984,-1.58227 4.75,-1.9375 0.57089,-0.0643 1.14954,-0.10553 1.6875,-0.125 z m 3.03125,4.5625 c 1.17767,0.009 1.53125,0.33474 1.53125,1.03125 0,0.77745 -0.5275,1.93375 -1.1875,2.59375 -0.66,0.66 -2.1225,1.1449 -3.25,1.0625 -10.21769,-0.7468 -10.31327,-2.85654 -0.1875,-4.375 1.36818,-0.20517 2.38715,-0.31789 3.09375,-0.3125 z m -9.40625,5.125 c 0.29949,0.0178 0.66491,0.1253 1.15625,0.28125 1.21651,0.3861 4.23829,0.7491 6.6875,0.8125 6.61876,0.17149 6.28063,2.24657 -0.5,3.09375 -3.13495,0.39169 -6.32373,0.93526 -7.0625,1.21875 -0.95046,0.36473 -1.34375,-0.41009 -1.34375,-2.65625 0,-2.11548 0.16404,-2.80346 1.0625,-2.75 z m 4.4375,6.71875 c 4.22222,0 5.5,0.34848 5.5,1.5 0,1.15152 -1.27778,1.5 -5.5,1.5 -4.22222,0 -5.5,-0.34848 -5.5,-1.5 0,-1.15152 1.27778,-1.5 5.5,-1.5 z m -0.53125,5 c 5.21489,0 8.23,1.14499 6.78125,2.59375 -0.76829,0.76825 -7.01611,1.21721 -10,0.71875 -1.5125,-0.25267 -2.75,-1.08653 -2.75,-1.875 0,-1.0839 1.47689,-1.4375 5.96875,-1.4375 z m 0.25,5.3125 c 0.69327,-0.003 1.43855,0.008 2.28125,0.0312 4.28747,0.11799 5,0.44126 5,2.15625 0,1.26814 -0.5489,1.84902 -1.5,1.625 -0.825,-0.19431 -2.4,-0.30705 -3.5,-0.28125 -1.1,0.0258 -3.4625,0.35033 -5.25,0.71875 -2.826,0.58246 -3.25,0.40417 -3.25,-1.375 0,-2.11834 1.36585,-2.8546 6.21875,-2.875 z m -0.5625,6.09375 c 0.7702,0.016 1.40341,0.11761 1.71875,0.3125 0.63068,0.38978 2.32296,0.55921 3.78125,0.40625 4.77887,-0.50127 3.93821,1.59126 -0.90625,2.25 -2.59863,0.35335 -5.9875,0.91427 -7.5,1.25 -2.28379,0.50693 -2.75,0.24769 -2.75,-1.40625 0,-1.42752 0.90105,-2.14896 3.125,-2.59375 0.85324,-0.17067 1.76105,-0.23472 2.53125,-0.21875 z m -1.84375,6.6875 c 2.17294,-0.0903 4.88354,0.15517 7.125,0.78125 1.92053,0.53644 1.12043,0.87684 -3.78125,1.6875 -6.47299,1.07052 -7.15625,0.95331 -7.15625,-1.25 0,-0.71922 1.63956,-1.12845 3.8125,-1.21875 z m -0.78125,4.90625 c 0.36148,-0.011 0.77026,-10e-4 1.21875,0 8.8298,0.0284 11.32782,2.42998 4.78125,4.59375 -3.76055,1.24294 -3.22062,1.88189 2.40625,2.9375 3.21662,0.60344 3.6412,0.94914 2.375,1.875 -0.84608,0.61868 -4.51128,1.24255 -8.15625,1.40625 -5.849,0.26267 -6.6385,0.10172 -6.625,-1.5 0.0237,-2.81086 1.47188,-4.45631 3.3125,-3.75 0.94025,0.36081 1.65625,0.15449 1.65625,-0.46875 0,-0.60885 -0.9,-1.09375 -2,-1.09375 -1.33333,0 -2,-0.66667 -2,-2 0,-1.47737 0.50092,-1.92278 3.03125,-2 z m -1.8125,12.6875 c 0.55441,-0.0167 1.29478,0.0481 2.25,0.125 7.29112,0.5867 9.979,3.43714 4.28125,4.53125 -1.7875,0.34324 -4.50979,0.93073 -6.0625,1.28125 -2.70732,0.61118 -2.80984,0.49192 -2.5,-2.75 0.23493,-2.45801 0.36803,-3.13728 2.03125,-3.1875 z m 0.3125,7.6875 c 0.77651,10e-4 1.80363,0.0444 3.125,0.125 3.16318,0.19303 6.28238,0.96988 7.09375,1.78125 1.26227,1.26226 0.94134,1.5476 -2.40625,2.125 -2.1102,0.36397 -4.97349,0.88074 -6.375,1.15625 -3.03745,0.59711 -3.96875,-0.13456 -3.96875,-3.15625 0,-1.58267 0.20172,-2.03468 2.53125,-2.03125 z m 0.78125,7.625 c 0.4403,-0.009 0.93532,0 1.5,0 2.64488,0 5.68222,0.61707 6.71875,1.375 1.77688,1.29929 1.71274,1.4146 -1.0625,1.96875 -10.41167,2.07898 -10.46875,2.05931 -10.46875,-0.75 0,-2.14641 0.23038,-2.52992 3.3125,-2.59375 z m 3.1875,6.6875 c 4.02051,-0.0311 7.5,1.04991 7.5,2.46875 0,0.46171 -0.7875,0.89785 -1.75,0.96875 -0.9625,0.0709 -2.875,0.26683 -4.25,0.4375 -1.375,0.17067 -3.7375,0.62748 -5.25,1 -2.45077,0.60362 -2.75,0.39838 -2.75,-1.84375 0,-2.27613 0.45266,-2.55971 4.75,-2.9375 0.58776,-0.0517 1.17564,-0.0893 1.75,-0.0937 z m 5.1875,5.78125 c 0.97829,0.0187 1.95866,0.34894 3,1.03125 3.39186,2.22243 1.95139,3.62375 -3.5,3.375 -2.56617,-0.11709 -5.67525,0.29541 -6.875,0.9375 -2.76393,1.47921 -2.61032,1.51894 -3.96875,-0.65625 -1.63861,-2.62383 -0.38275,-3.91711 3.65625,-3.71875 1.925,0.0945 4.59451,-0.19437 5.90625,-0.65625 0.6217,-0.21891 1.19427,-0.32372 1.78125,-0.3125 z m -9.8125,7.21875 c 0.75943,-0.0128 1.69968,0.009 2.875,0.0625 7.36025,0.33644 9.47299,0.63525 11.125,1.65625 1.01696,0.62851 1.06681,0.99974 0.15625,1.5625 -1.56371,0.96642 -15.403,1.28451 -16.3125,0.375 -0.38493,-0.38492 -0.71875,-1.40601 -0.71875,-2.28125 0,-0.97585 0.5967,-1.33652 2.875,-1.375 z"
         id="path3219"
         inkscape:connector-curvature="0" />
      <path
         style="fill:#085231;fill-opacity:1"
         d="m 186.29626,496.4905 c 0.0607,-1.36992 2.69518,-4.21777 3.90177,-4.21777 2.03486,0 0.71436,3.21967 -1.68357,4.10492 -1.2375,0.45685 -2.23569,0.50763 -2.2182,0.11285 z"
         id="path3129"
         inkscape:connector-curvature="0" />
    </g>
  </g>
</svg>
