<?xml version="1.0" encoding="UTF-8"?>
<svg version="1.1" xmlns="http://www.w3.org/2000/svg" width="1757" height="1757">
<path d="M0 0 C2.56754386 -0.00134735 5.13508753 -0.00313163 7.70263082 -0.00531223 C13.29349573 -0.00935204 18.88435134 -0.00969812 24.47521718 -0.00760629 C32.84504725 -0.00449192 41.21486881 -0.00714969 49.58469827 -0.010905 C63.85129201 -0.01713468 78.11788272 -0.01861171 92.38447762 -0.01748753 C106.8404481 -0.01636277 121.296416 -0.01739822 135.75238609 -0.02105999 C137.12244879 -0.02140447 137.12244879 -0.02140447 138.52018952 -0.02175591 C142.24029361 -0.02269756 145.96039769 -0.02365325 149.68050177 -0.0246271 C188.48204987 -0.03476973 227.28359652 -0.03783302 266.08514579 -0.03841921 C270.26124896 -0.03848396 274.43735213 -0.0385519 278.6134553 -0.03862262 C279.64976899 -0.03863962 280.68608268 -0.03865663 281.75379982 -0.03867415 C304.72068191 -0.03908264 327.68756373 -0.04127268 350.65444568 -0.04377846 C360.11204448 -0.04480682 369.56964327 -0.04579685 379.02724206 -0.04679471 C380.07223148 -0.0469053 381.1172209 -0.04701589 382.19387666 -0.04712983 C442.07518916 -0.05345373 501.95650148 -0.05757896 561.83781433 -0.05712128 C564.07867598 -0.0571055 566.31953763 -0.05708976 568.56039927 -0.05707407 C578.67766469 -0.05700069 588.79493011 -0.05691252 598.91219552 -0.05682018 C603.423726 -0.05677906 607.93525648 -0.05673891 612.44678696 -0.05669887 C614.70488881 -0.05667848 616.96299066 -0.05665746 619.22109251 -0.05663581 C690.62706924 -0.05595554 762.03304101 -0.06327334 833.43901634 -0.07717609 C851.43044915 -0.08067712 869.42188197 -0.08414658 887.41331482 -0.08744049 C888.52112285 -0.08764336 889.62893088 -0.08784624 890.77030885 -0.08805526 C924.91455415 -0.09427034 959.05879905 -0.09803584 993.20304489 -0.09929848 C994.27505565 -0.09933843 995.34706641 -0.09937838 996.45156234 -0.09941954 C1019.98491424 -0.10027282 1043.51826612 -0.10053401 1067.05161803 -0.10024916 C1075.47229298 -0.10015268 1083.89296793 -0.10010064 1092.31364289 -0.10007043 C1094.40848541 -0.10006252 1096.50332793 -0.10005232 1098.59817045 -0.10003981 C1131.97388989 -0.09986351 1165.34960508 -0.10556071 1198.7253233 -0.11419363 C1232.34142798 -0.12284453 1265.95752678 -0.12503398 1299.5736321 -0.1184323 C1304.22042074 -0.11752003 1308.86720938 -0.11667675 1313.51399803 -0.11587429 C1314.88032003 -0.11563416 1314.88032003 -0.11563416 1316.27424449 -0.11538918 C1330.68772756 -0.11303766 1345.10120046 -0.11739031 1359.51468163 -0.12454548 C1373.69316972 -0.13144333 1387.8716428 -0.13118406 1402.05013057 -0.12335334 C1410.35825247 -0.11897752 1418.66633012 -0.12003023 1426.97444834 -0.12922013 C1433.15024061 -0.13543632 1439.32598465 -0.13116379 1445.50177357 -0.12288683 C1447.97888778 -0.12116998 1450.45600719 -0.12277923 1452.93311609 -0.12818803 C1503.8380007 -0.2318669 1503.8380007 -0.2318669 1520.71489525 15.12863445 C1535.80817556 31.06482047 1535.18326943 55.18811648 1535.16110802 75.71203899 C1535.16297943 77.36773746 1535.16528144 79.02343548 1535.16797334 80.67913282 C1535.17405696 85.20070733 1535.17396182 89.72226327 1535.17277896 94.24384093 C1535.17257408 99.1315484 1535.17810204 104.01925004 1535.18283653 108.90695477 C1535.19112483 118.4725691 1535.19389055 128.03817726 1535.19444891 137.60379489 C1535.19492495 145.38367572 1535.19698408 153.16355453 1535.20014954 160.94343472 C1535.20895125 183.02704245 1535.21356968 205.11064533 1535.21281906 227.19425483 C1535.21277911 228.38351319 1535.21273915 229.57277155 1535.21269798 230.79806805 C1535.21263666 232.58414734 1535.21263666 232.58414734 1535.2125741 234.40630905 C1535.2121678 253.69597585 1535.22173459 272.9856231 1535.23583635 292.27528425 C1535.25021969 312.10747008 1535.25710545 331.93964641 1535.25624257 351.77183759 C1535.25591127 362.89573865 1535.25862892 374.01961924 1535.26942062 385.14351559 C1535.27855143 394.61569418 1535.28067975 404.087843 1535.2739112 413.5600241 C1535.27065895 418.38654335 1535.27054217 423.21300558 1535.27926445 428.03951931 C1535.28718808 432.46992956 1535.28563893 436.90023813 1535.27698032 441.33064608 C1535.27545812 442.9214455 1535.27721229 444.51225273 1535.28284039 446.10304292 C1535.31016195 454.38321999 1535.01905408 462.53463538 1534.12522411 470.77130985 C1534.04613785 471.50384664 1533.96705159 472.23638342 1533.88556878 472.99111829 C1532.2715962 486.5501575 1527.67633532 498.57176642 1517.664114 508.0544157 C1500.79104138 521.3278995 1477.39196606 520.25602116 1457.06791306 520.35842991 C1453.88290991 520.37505418 1450.69801483 520.3982968 1447.51306725 520.42332745 C1438.46540926 520.49352186 1429.41770871 520.55404884 1420.36992455 520.60544109 C1414.8122473 520.63747034 1409.25469946 520.67879537 1403.6971283 520.72563648 C1401.59669723 520.74150315 1399.49623658 520.75389403 1397.3957634 520.76254368 C1371.4756616 520.77486199 1371.4756616 520.77486199 1347.65239525 530.19113445 C1334.79464719 544.5795668 1335.88598487 564.2138114 1335.46489525 582.25363445 C1335.42161644 583.99062215 1335.37799947 585.72760145 1335.33403587 587.46457195 C1335.22792181 591.68583944 1335.12638996 595.90719425 1335.02739525 600.12863445 C1336.69572411 600.112924 1336.69572411 600.112924 1338.39775658 600.09689617 C1342.62298272 600.06001272 1346.84819551 600.03749223 1351.07353783 600.01877117 C1352.88378371 600.00886602 1354.6940143 599.99533824 1356.50420189 599.97775555 C1366.19016732 599.88620069 1375.76467185 600.01876138 1385.4063015 601.0231657 C1386.17086159 601.10271496 1386.93542168 601.18226421 1387.72315025 601.26422405 C1401.28638818 602.83412219 1413.47904141 607.42635798 1422.95708275 617.5153532 C1432.0827606 629.0343692 1433.76230468 644.09266348 1435.76177025 658.21457195 C1438.17436372 675.82534739 1438.17436372 675.82534739 1448.02739525 690.12863445 C1458.01530298 696.46892071 1468.56668717 698.33470058 1480.054739 700.01925945 C1502.44968861 703.33566637 1502.44968861 703.33566637 1511.02739525 708.12863445 C1512.09989525 708.72675945 1513.17239525 709.32488445 1514.27739525 709.94113445 C1527.25780824 720.26646297 1532.31075555 732.9851746 1534.29326439 749.31914043 C1535.36211803 760.18060573 1535.19163877 771.0785409 1535.195364 781.98019695 C1535.19858449 784.20679018 1535.20194914 786.4333832 1535.20545006 788.65997601 C1535.21141468 793.31473563 1535.21329275 797.96947675 1535.21269798 802.62423992 C1535.21259661 808.5410663 1535.22623513 814.45777202 1535.24347019 820.37456989 C1535.25467904 824.97156584 1535.25661447 829.56853345 1535.25608826 834.16554165 C1535.25725556 836.3444628 1535.26160558 838.52338499 1535.26942062 840.70229244 C1535.42608454 888.89728206 1535.42608454 888.89728206 1520.02739525 905.81613445 C1506.15982602 918.92853902 1486.83529022 919.82060824 1468.789114 919.40988445 C1458.86575917 919.02155816 1450.14173663 917.30187171 1441.101614 913.01144695 C1439.95652367 912.4714909 1438.81143333 911.93153484 1437.6316433 911.37521648 C1436.77224144 910.96384441 1435.91283958 910.55247234 1435.02739525 910.12863445 C1435.02853441 911.23244003 1435.02853441 911.23244003 1435.02969658 912.35854471 C1435.07450491 956.02416964 1435.1087947 999.68979206 1435.12952591 1043.35543539 C1435.13202716 1048.60470491 1435.13461582 1053.85397438 1435.13725853 1059.10324383 C1435.13778315 1060.14822802 1435.13830777 1061.19321222 1435.13884829 1062.26986261 C1435.14753818 1079.16444311 1435.16330032 1096.05900993 1435.18170084 1112.95358233 C1435.20043935 1130.30387879 1435.21152031 1147.65416812 1435.21557224 1165.00447428 C1435.21830911 1175.70054565 1435.22693652 1186.39657834 1435.24322818 1197.09263779 C1435.25384388 1204.43883157 1435.25698555 1211.7850055 1435.254398 1219.13120638 C1435.25312382 1223.36221952 1435.25500255 1227.5931653 1435.2658062 1231.8241663 C1435.40407746 1288.92146168 1435.40407746 1288.92146168 1420.02739525 1305.81613445 C1408.28510267 1316.8473553 1392.27003551 1318.69269632 1376.94145775 1320.86300945 C1359.33068231 1323.27560292 1359.33068231 1323.27560292 1345.02739525 1333.12863445 C1338.68710899 1343.11654218 1336.82132912 1353.66792637 1335.13677025 1365.1559782 C1331.82036334 1387.55092781 1331.82036334 1387.55092781 1327.02739525 1396.12863445 C1326.42927025 1397.20113445 1325.83114525 1398.27363445 1325.21489525 1399.37863445 C1315.38302322 1411.73870215 1303.59781974 1416.89048657 1288.02739525 1419.12863445 C1280.35814462 1419.91535452 1272.7617588 1420.2727267 1265.05541039 1420.24888897 C1264.02018564 1420.24974339 1262.9849609 1420.25059782 1261.91836572 1420.25147814 C1258.48691724 1420.25311108 1255.05551883 1420.24764772 1251.62407494 1420.24215984 C1249.14942997 1420.24187747 1246.67478492 1420.24203668 1244.20014 1420.24260235 C1238.89157289 1420.24282927 1233.58302105 1420.24001282 1228.27445793 1420.23436451 C1220.59936766 1420.22620357 1212.92428331 1420.2236296 1205.24918917 1420.22237652 C1192.79390682 1420.22019319 1180.33863106 1420.21355267 1167.88335228 1420.20407391 C1155.79123022 1420.19488114 1143.69910995 1420.18780944 1131.60698509 1420.18356609 C1130.86040188 1420.18330337 1130.11381868 1420.18304065 1129.34461173 1420.18276996 C1125.59885747 1420.18146483 1121.8531032 1420.18020115 1118.10734892 1420.17895806 C1087.08069291 1420.16860785 1056.05404508 1420.15093432 1025.02739525 1420.12863445 C1025.65607758 1421.46824482 1025.65607758 1421.46824482 1026.29746056 1422.83491802 C1026.84344398 1424.00619747 1027.38942741 1425.17747692 1027.9519558 1426.38424969 C1028.49482735 1427.54544827 1029.0376989 1428.70664684 1029.5970211 1429.90303326 C1031.14740273 1433.39926034 1032.12111724 1436.44885154 1032.83989525 1440.19113445 C1033.05259056 1441.23398602 1033.26528587 1442.27683758 1033.4844265 1443.3512907 C1035.33012954 1456.19154135 1035.19094159 1469.03827084 1035.195364 1481.98019695 C1035.19858449 1484.20679018 1035.20194914 1486.4333832 1035.20545006 1488.65997601 C1035.21141468 1493.31473563 1035.21329275 1497.96947675 1035.21269798 1502.62423992 C1035.21259661 1508.5410663 1035.22623513 1514.45777202 1035.24347019 1520.37456989 C1035.25467904 1524.97156584 1035.25661447 1529.56853345 1035.25608826 1534.16554165 C1035.25725556 1536.3444628 1035.26160558 1538.52338499 1035.26942062 1540.70229244 C1035.42608454 1588.89728206 1035.42608454 1588.89728206 1020.02739525 1605.81613445 C1006.16095077 1618.92747552 986.83106107 1619.82644473 968.78520775 1619.4059782 C954.07107384 1618.82787154 940.16058874 1615.1314894 929.02739525 1605.00363445 C918.33041145 1593.15558375 916.44757753 1577.25999363 914.29302025 1562.04269695 C911.88042678 1544.43192152 911.88042678 1544.43192152 902.02739525 1530.12863445 C890.94937874 1523.19417281 879.23522044 1521.39728286 866.52739525 1519.69113445 C850.31665958 1517.49855158 835.57337503 1513.53454095 825.02739525 1500.12863445 C813.68846557 1481.27982542 814.86685182 1458.84729971 814.8594265 1437.65207195 C814.8562049 1435.47414409 814.85284018 1433.29621643 814.84934044 1431.11828899 C814.84338006 1426.56785869 814.84149731 1422.01744729 814.84209251 1417.46701336 C814.84219388 1411.68819644 814.82855441 1405.9095031 814.8113203 1400.13071537 C814.80010141 1395.63490544 814.79817633 1391.13912444 814.79870224 1386.64330196 C814.79753647 1384.51544679 814.79319551 1382.38759051 814.78536987 1380.25974941 C814.65345872 1340.68576179 814.65345872 1340.68576179 823.10210228 1323.94382 C823.46256645 1323.22800259 823.82303062 1322.51218517 824.19441795 1321.77467632 C824.46930046 1321.23148251 824.74418297 1320.68828869 825.02739525 1320.12863445 C818.60829353 1320.22208064 812.18952765 1320.32951286 805.77080345 1320.44601727 C803.59377213 1320.48395977 801.41668548 1320.51886845 799.23955345 1320.55050945 C772.36416683 1320.61807931 772.36416683 1320.61807931 747.65239525 1330.19113445 C738.83764964 1340.05525454 736.98749338 1352.53474926 735.13677025 1365.1559782 C731.82036334 1387.55092781 731.82036334 1387.55092781 727.02739525 1396.12863445 C726.42927025 1397.20113445 725.83114525 1398.27363445 725.21489525 1399.37863445 C714.88807122 1412.36092751 702.08959613 1417.50224785 685.7254982 1419.39486408 C675.93557079 1420.32841701 666.16810221 1420.2810771 656.34428978 1420.2863493 C654.3751114 1420.29102617 652.40593409 1420.29617115 650.43675804 1420.30174541 C646.21683035 1420.31296458 641.99690946 1420.32142817 637.77697182 1420.32786465 C631.09315734 1420.33861197 624.40939226 1420.3588731 617.72560692 1420.38098431 C598.72645389 1420.44268736 579.72730493 1420.49690406 560.72807884 1420.53000164 C550.21908628 1420.54838824 539.7101778 1420.57736904 529.2012471 1420.61800635 C523.65094658 1420.63899714 518.1007516 1420.65452247 512.55040932 1420.65681362 C507.328335 1420.65897221 502.1064809 1420.67496429 496.8844738 1420.70120335 C494.97786361 1420.70835003 493.07122661 1420.71052004 491.16460609 1420.70710087 C475.87849571 1420.68408341 457.98375543 1420.79454678 446.08989525 1431.9450407 C437.65975938 1442.37733384 436.57577627 1455.61415045 434.74834251 1468.39181805 C432.39672913 1484.61778352 428.37452649 1499.38215197 415.02739525 1510.12863445 C403.61037254 1517.31163864 390.06075636 1519.00549948 376.94145775 1520.86300945 C359.33068231 1523.27560292 359.33068231 1523.27560292 345.02739525 1533.12863445 C338.68710899 1543.11654218 336.82132912 1553.66792637 335.13677025 1565.1559782 C331.82036334 1587.55092781 331.82036334 1587.55092781 327.02739525 1596.12863445 C326.42927025 1597.20113445 325.83114525 1598.27363445 325.21489525 1599.37863445 C315.8517099 1611.14949603 304.4045136 1617.05706623 289.36089134 1618.91769695 C268.99117792 1620.75902698 248.28208185 1619.83010006 231.36333275 1607.12863445 C218.7778297 1595.67961496 216.08250405 1578.49458005 215.12466049 1562.28733349 C214.75511373 1554.08563459 214.862302 1545.86005775 214.8594265 1537.65207195 C214.8562049 1535.47414409 214.85284018 1533.29621643 214.84934044 1531.11828899 C214.84338006 1526.56785869 214.84149731 1522.01744729 214.84209251 1517.46701336 C214.84219388 1511.68819644 214.82855441 1505.9095031 214.8113203 1500.13071537 C214.80010141 1495.63490544 214.79817633 1491.13912444 214.79870224 1486.64330196 C214.79753647 1484.51544679 214.79319551 1482.38759051 214.78536987 1480.25974941 C214.65345872 1440.68576179 214.65345872 1440.68576179 223.10210228 1423.94382 C223.46256645 1423.22800259 223.82303062 1422.51218517 224.19441795 1421.77467632 C224.46930046 1421.23148251 224.74418297 1420.68828869 225.02739525 1420.12863445 C224.42843437 1420.13307568 223.8294735 1420.1375169 223.21236229 1420.1420927 C216.88380422 1420.18691559 210.55529241 1420.21674073 204.226614 1420.23849773 C201.87600938 1420.24845248 199.5254168 1420.26202112 197.17485619 1420.27951336 C146.39080284 1420.64751375 146.39080284 1420.64751375 129.33989525 1405.12863445 C118.3086744 1393.38634188 116.46333339 1377.37127471 114.29302025 1362.04269695 C111.88042678 1344.43192152 111.88042678 1344.43192152 102.02739525 1330.12863445 C90.94937874 1323.19417281 79.23522044 1321.39728286 66.52739525 1319.69113445 C50.31665958 1317.49855158 35.57337503 1313.53454095 25.02739525 1300.12863445 C15.00991879 1283.47648948 14.8644133 1264.13692986 14.90714073 1245.27797222 C14.90670362 1243.82307218 14.90582613 1242.36817222 14.90455157 1240.91327268 C14.90233417 1236.95208313 14.90628976 1232.99092103 14.91132963 1229.02973497 C14.91567388 1224.74430655 14.9141849 1220.45887952 14.91342735 1216.17344952 C14.91290463 1208.76081956 14.91602512 1201.34819845 14.92166519 1193.93557072 C14.92981431 1183.21833673 14.9323989 1172.501107 14.93365318 1161.78387026 C14.93583835 1144.393174 14.9424839 1127.00248245 14.9519558 1109.61178875 C14.96114377 1092.72474472 14.96821782 1075.83770197 14.97246361 1058.95065594 C14.97272633 1057.90862289 14.97298905 1056.86658984 14.97325974 1055.79298004 C14.97456484 1050.56507335 14.97582853 1045.33716666 14.97707164 1040.10925996 C14.98742758 996.78238153 15.00503132 953.45550824 15.02739525 910.12863445 C13.73829247 910.74569256 13.73829247 910.74569256 12.4231472 911.37521648 C11.27805687 911.91517254 10.13296654 912.45512859 8.9531765 913.01144695 C7.82564964 913.54656902 6.69812279 914.08169109 5.53642845 914.63302898 C-12.45826615 922.30265252 -37.59827396 921.72370625 -55.67572975 914.6872282 C-67.40983858 909.5227965 -74.78973079 902.40710047 -79.757761 890.5856657 C-85.75921611 873.50756998 -85.1343216 855.49785032 -85.1405735 837.65207195 C-85.1437951 835.47414409 -85.14715982 833.29621643 -85.15065956 831.11828899 C-85.15661994 826.56785869 -85.15850269 822.01744729 -85.15790749 817.46701336 C-85.15780612 811.68819644 -85.17144559 805.9095031 -85.1886797 800.13071537 C-85.19989859 795.63490544 -85.20182367 791.13912444 -85.20129776 786.64330196 C-85.20246353 784.51544679 -85.20680449 782.38759051 -85.21463013 780.25974941 C-85.37760359 731.36691928 -85.37760359 731.36691928 -69.97260475 714.44113445 C-57.60019636 702.81795538 -40.38660771 701.3453799 -24.30439186 698.99142742 C-12.52806338 697.25242075 -0.80050887 694.92560368 6.7500515 684.82394695 C12.30517176 675.62455861 13.3968927 665.46546393 14.91802025 655.0309782 C18.21724167 632.737097 18.21724167 632.737097 23.02739525 624.12863445 C23.92458275 622.51988445 23.92458275 622.51988445 24.83989525 620.87863445 C34.65075708 608.54497958 46.46949401 603.30862263 62.02739525 601.12863445 C73.27801866 599.86424649 84.5379799 600.0127998 95.83989525 600.06613445 C97.70773258 600.07116206 99.57557124 600.07572273 101.44341087 600.07980633 C105.97143884 600.09070611 110.49940208 600.10790042 115.02739525 600.12863445 C114.93241431 595.13364091 114.82604309 590.13905258 114.71001244 585.14450359 C114.67220253 583.45251025 114.63727537 581.76044952 114.60552025 580.06833172 C114.2877186 563.32912321 113.955866 547.46613205 104.96489525 532.75363445 C93.00856978 522.0692585 77.45103105 521.00187897 62.18169212 520.95505047 C61.25329521 520.94836346 60.3248983 520.94167645 59.36836815 520.9347868 C57.36928119 520.92083555 55.37017923 520.90891082 53.37106895 520.898839 C50.18960201 520.8822458 47.00824465 520.85899986 43.82683372 520.83394146 C34.78664819 520.76368848 25.74641741 520.70338297 16.70610619 520.65182781 C11.1572057 520.61971845 5.60843269 520.57836676 0.05963707 520.53163242 C-2.03552357 520.51580173 -4.1307134 520.50339506 -6.22591591 520.49472523 C-53.99732013 520.29426372 -53.99732013 520.29426372 -70.66010475 505.12863445 C-85.98763046 488.94512127 -85.12896279 464.32113798 -85.10631752 443.50763226 C-85.10818945 441.86003303 -85.11049167 440.21243424 -85.11318284 438.56483614 C-85.11926003 434.07025471 -85.1191721 429.57569198 -85.11798847 425.08110738 C-85.11778342 420.22066513 -85.12331309 415.36022872 -85.12804604 410.49978924 C-85.13633074 400.98945606 -85.13909989 391.47912909 -85.13965841 381.9687926 C-85.14013461 374.23328067 -85.14219454 366.49777077 -85.14535904 358.76225948 C-85.15415969 336.80030061 -85.15877934 314.83834662 -85.15802857 292.87638597 C-85.15798861 291.69392973 -85.15794865 290.51147348 -85.15790749 289.29318523 C-85.15784616 287.5173195 -85.15784616 287.5173195 -85.15778361 285.70557769 C-85.15737731 266.52658094 -85.16694422 247.34760383 -85.18104585 228.16861276 C-85.19543204 208.44600163 -85.2023148 188.72340007 -85.20145208 169.00078356 C-85.20112088 157.94002268 -85.20383399 146.8792824 -85.21463013 135.81852627 C-85.22376468 126.40019923 -85.2258862 116.98190213 -85.2191207 107.56357257 C-85.21587036 102.76527608 -85.21574467 97.96703693 -85.22447395 93.16874599 C-85.23240614 88.76299545 -85.23083996 84.35734709 -85.22218982 79.95159884 C-85.22066947 78.37090566 -85.22241456 76.7902046 -85.2280499 75.20952074 C-85.25618171 66.74774506 -84.9332032 58.4092919 -84.07043362 49.98751545 C-83.99134736 49.20804295 -83.9122611 48.42857045 -83.83077828 47.62547757 C-82.30328214 33.97099382 -77.72004524 21.77879297 -67.6093235 12.2028532 C-49.0164036 -2.42357712 -22.25181101 -0.020115 0 0 Z " fill="#000000" transform="translate(152.9726047515869,68.87136554718018)"/>
<path d="M0 0 C1.77094541 0.00476351 3.54189203 0.00909149 5.31283951 0.01301003 C9.85370399 0.02432758 14.39452138 0.04180398 18.93535805 0.06112003 C22.22167151 0.07445631 25.50798938 0.0843776 28.79431558 0.09396279 C47.86420728 0.14974866 66.93394195 0.25360685 86.00361252 0.35930443 C96.02311496 0.41470202 106.04260797 0.4637804 116.06217933 0.50492036 C123.21826958 0.53484792 130.37430042 0.57209885 137.53032708 0.6145674 C141.76134144 0.63947715 145.99231449 0.66136431 150.22338104 0.67512131 C209.54583523 0.87617255 209.54583523 0.87617255 226.36621094 15.65771484 C238.32041748 28.35518812 239.87067329 46.57806967 241.84667969 63.05419922 C243.26311461 73.58061092 245.93160404 84.94274879 254.75292969 91.76708984 C255.92662109 92.47478516 255.92662109 92.47478516 257.12402344 93.19677734 C257.8884375 93.67373047 258.65285156 94.15068359 259.44042969 94.64208984 C269.17639047 99.10186662 279.84595632 100.10676794 290.35839844 101.44482422 C304.60291035 103.39244341 320.00121157 106.99731737 329.22558594 119.02099609 C341.6984365 138.16791581 340.72180731 160.45854733 340.72949219 182.45068359 C340.73271314 184.6300407 340.73607781 186.8093976 340.73957825 188.98875427 C340.74554249 193.54516093 340.74742101 198.1015487 340.74682617 202.65795898 C340.74672487 208.44465166 340.76035642 214.23122076 340.77759838 220.01788425 C340.7888182 224.51798539 340.79074232 229.01805763 340.79021645 233.51817131 C340.79138238 235.64881756 340.79572435 237.77946492 340.80354881 239.91009712 C340.96299632 287.82182544 340.96299632 287.82182544 325.97558594 304.87646484 C312.44189563 317.61793913 293.73673606 318.77077807 276.17089844 318.35302734 C261.43374645 317.75517128 247.32374756 314.50403595 236.30371094 304.03271484 C225.68149124 292.07676353 223.83218142 276.19203703 221.85522461 260.93481445 C219.60191881 243.66363287 219.60191881 243.66363287 209.56152344 230.07177734 C208.83964844 229.39115234 208.11777344 228.71052734 207.37402344 228.00927734 C198.76580299 222.07916992 188.87250565 220.92973369 178.74902344 219.57177734 C144.52250478 214.94516348 144.52250478 214.94516348 133.89746094 201.12646484 C126.84950922 190.28663267 124.44788673 179.41815002 122.67089844 166.82177734 C122.50799316 165.69271973 122.34508789 164.56366211 122.17724609 163.40039062 C121.85837678 161.15624869 121.55507382 158.90982014 121.27001953 156.66113281 C119.90965842 146.93521409 117.55903431 136.46978604 109.56152344 130.07177734 C108.86027344 129.39115234 108.15902344 128.71052734 107.43652344 128.00927734 C96.23313148 120.45916537 82.55286196 119.98920486 69.60839844 122.34130859 C59.06814762 124.86826616 52.74222572 128.73351666 46.99121094 137.95068359 C42.53143416 147.68664437 41.52653284 158.35621022 40.18847656 168.86865234 C38.23984196 183.12059077 34.63239192 198.4967318 22.61621094 207.73583984 C11.77637876 214.78379156 0.90789611 217.18541406 -11.68847656 218.96240234 C-12.81753418 219.12530762 -13.9465918 219.28821289 -15.10986328 219.45605469 C-17.35400521 219.774924 -19.60043376 220.07822696 -21.84912109 220.36328125 C-32.20977812 221.812423 -43.42931528 224.59680158 -50.13378906 233.26318359 C-50.60558594 234.04564453 -51.07738281 234.82810547 -51.56347656 235.63427734 C-52.04042969 236.39869141 -52.51738281 237.16310547 -53.00878906 237.95068359 C-57.46856584 247.68664437 -58.47346716 258.35621022 -59.81152344 268.86865234 C-61.57112755 281.73805813 -64.76511231 292.49543679 -72.43847656 303.07177734 C-72.87675781 303.74080078 -73.31503906 304.40982422 -73.76660156 305.09912109 C-80.06604151 313.77033813 -91.94744471 316.84937491 -102.02050781 318.60302734 C-122.78812365 321.17161511 -144.85341354 320.02126747 -162.10253906 307.07177734 C-174.68804211 295.62275785 -177.38336776 278.43772294 -178.34121132 262.23047638 C-178.71075808 254.02877748 -178.60356981 245.80320065 -178.60644531 237.59521484 C-178.60966691 235.41728698 -178.61303163 233.23935932 -178.61653137 231.06143188 C-178.62249175 226.51100158 -178.6243745 221.96059018 -178.6237793 217.41015625 C-178.62367794 211.63133933 -178.6373174 205.85264599 -178.65455151 200.07385826 C-178.6657704 195.57804833 -178.66769548 191.08226734 -178.66716957 186.58644485 C-178.66833534 184.45858968 -178.67267631 182.3307334 -178.68050194 180.2028923 C-178.8434754 131.31006217 -178.8434754 131.31006217 -163.43847656 114.38427734 C-151.06606818 102.76109827 -133.85247952 101.28852279 -117.77026367 98.93457031 C-105.99393519 97.19556364 -94.26638068 94.86874657 -86.71582031 84.76708984 C-81.16070005 75.5677015 -80.06897911 65.40860682 -78.54785156 54.97412109 C-75.24863014 32.68023989 -75.24863014 32.68023989 -70.43847656 24.07177734 C-69.84035156 22.99927734 -69.24222656 21.92677734 -68.62597656 20.82177734 C-58.81511473 8.48812247 -46.9963778 3.25176552 -31.43847656 1.07177734 C-20.95119237 -0.02526069 -10.52748953 -0.05060957 0 0 Z " fill="#232323" transform="translate(246.4384765625,668.92822265625)"/>
<path d="M0 0 C3.56712678 -0.02670082 7.13426728 -0.04447707 10.70145589 -0.06061226 C12.38229506 -0.07004647 14.06311935 -0.08301375 15.74389845 -0.10007077 C24.6577766 -0.18850752 33.43895317 0.04152513 42.31178325 0.95661479 C43.08577612 1.03611875 43.85976899 1.11562271 44.65721619 1.19753587 C58.26917032 2.74607634 70.49840403 7.32134746 80.01190227 17.44808513 C89.13758012 28.96710113 90.8171242 44.0253954 92.81658977 58.14730388 C95.22918324 75.75807931 95.22918324 75.75807931 105.08221477 90.06136638 C115.0701225 96.40165264 125.62150669 98.2674325 137.10955852 99.95199138 C159.50450813 103.26839829 159.50450813 103.26839829 168.08221477 108.06136638 C169.69096477 108.95855388 169.69096477 108.95855388 171.33221477 109.87386638 C184.31262776 120.19919489 189.36557508 132.91790652 191.34808391 149.25187236 C192.41693756 160.11333766 192.2464583 171.01127282 192.25018352 181.91292888 C192.25340402 184.13952211 192.25676866 186.36611513 192.26026958 188.59270793 C192.2662342 193.24746755 192.26811228 197.90220868 192.26751751 202.55697185 C192.26741614 208.47379823 192.28105465 214.39050394 192.29828972 220.30730182 C192.30949857 224.90429776 192.31143399 229.50126537 192.31090778 234.09827358 C192.31207508 236.27719473 192.3164251 238.45611692 192.32424015 240.63502437 C192.48090406 288.83001398 192.48090406 288.83001398 177.08221477 305.74886638 C163.21464555 318.86127094 143.89010975 319.75334016 125.84393352 319.34261638 C113.14118256 318.8455252 99.11606066 316.59808331 89.48455852 307.64730388 C78.95675897 295.44981992 75.3877682 282.37921349 73.19158977 266.81136638 C73.0286845 265.68230876 72.86577923 264.55325114 72.69793743 263.38997966 C72.37906812 261.14583773 72.07576515 258.89940918 71.79071087 256.65072185 C70.43034975 246.92480312 68.07972565 236.45937508 60.08221477 230.06136638 C59.36033977 229.38074138 58.63846477 228.70011638 57.89471477 227.99886638 C49.28649432 222.06875896 39.39319698 220.91932273 29.26971477 219.56136638 C-4.95680388 214.93475252 -4.95680388 214.93475252 -15.58184773 201.11605388 C-22.62979944 190.27622171 -25.03142194 179.40773905 -26.80841023 166.81136638 C-26.9713155 165.68230876 -27.13422077 164.55325114 -27.30206257 163.38997966 C-27.62093188 161.14583773 -27.92423485 158.89940918 -28.20928913 156.65072185 C-29.56965025 146.92480312 -31.92027435 136.45937508 -39.91778523 130.06136638 C-40.61903523 129.38074138 -41.32028523 128.70011638 -42.04278523 127.99886638 C-53.24617718 120.44875441 -66.92644671 119.97879389 -79.87091023 122.33089763 C-90.41116105 124.8578552 -96.73708295 128.7231057 -102.48809773 137.94027263 C-106.94787451 147.67623341 -107.95277583 158.34579926 -109.2908321 168.85824138 C-111.23845129 183.1027533 -114.84332525 198.50105451 -126.86700398 207.72542888 C-146.0139237 220.19827944 -168.30455522 219.22165025 -190.29669148 219.22933513 C-192.47604858 219.23255608 -194.65540548 219.23592075 -196.83476216 219.23942119 C-201.39116881 219.24538543 -205.94755659 219.24726395 -210.50396687 219.24666911 C-216.29065954 219.24656781 -222.07722864 219.26019936 -227.86389214 219.27744132 C-232.36399328 219.28866114 -236.86406551 219.29058526 -241.36417919 219.29005939 C-243.49482545 219.29122532 -245.6254728 219.29556729 -247.75610501 219.30339175 C-295.66783333 219.46283926 -295.66783333 219.46283926 -312.72247273 204.47542888 C-325.46394702 190.94173857 -326.61678595 172.23657901 -326.19903523 154.67074138 C-325.60117916 139.93358939 -322.35004384 125.8235905 -311.87872273 114.80355388 C-300.21439771 104.44042847 -284.94373252 102.49382013 -270.02325398 100.63949138 C-257.89385416 99.01664204 -244.56524746 96.73724766 -236.17559773 87.04964763 C-229.14757814 76.75237514 -228.02538151 63.37104127 -226.41778523 51.31136638 C-224.47575616 36.89358672 -221.19261557 21.77539919 -208.96856648 12.39730388 C-191.50070336 1.01823876 -171.68741023 0.93925358 -151.48101765 0.85604411 C-149.97751575 0.84643484 -148.47401639 0.83642314 -146.9705196 0.82604533 C-142.91709665 0.79922396 -138.86366247 0.77806723 -134.81020099 0.75804335 C-130.51411865 0.73588814 -126.21806844 0.70861284 -121.92201191 0.68198711 C-114.6820927 0.63782989 -107.44216106 0.59706864 -100.20220906 0.55868083 C-91.04229944 0.51010198 -81.8824287 0.4563389 -72.72255951 0.40070564 C-64.71699151 0.35209763 -56.71141108 0.30566081 -48.70582753 0.25969368 C-46.2024811 0.24527252 -43.69913598 0.23063867 -41.19579083 0.21599704 C-32.51634118 0.16581168 -23.83692318 0.12326331 -15.15738022 0.09293997 C-10.10478723 0.07404668 -5.05246222 0.04070349 0 0 Z " fill="#232323" transform="translate(1495.9177852272987,668.938633620739)"/>
<path d="M0 0 C1.92121512 -0.00271969 3.8424292 -0.00628603 5.76364136 -0.01062012 C10.91655478 -0.01963027 16.06938689 -0.01624754 21.22230148 -0.00986195 C26.6554458 -0.00474228 32.08858388 -0.00950977 37.52172852 -0.01263428 C46.63982371 -0.01625674 55.75788633 -0.01152027 64.87597656 -0.00195312 C75.36653409 0.00892807 85.85701382 0.00540127 96.34756947 -0.00560594 C105.40978815 -0.01472813 114.47198364 -0.01594013 123.53420544 -0.0107286 C128.92248494 -0.00763585 134.31072807 -0.00712431 139.69900513 -0.01380157 C144.76848047 -0.01964676 149.83785708 -0.01544932 154.90732193 -0.00401306 C156.75015221 -0.00140433 158.59299103 -0.0020652 160.43581772 -0.00653839 C169.90473876 -0.02737558 179.25929342 0.24469489 188.68774414 1.16949463 C189.50498931 1.24958448 190.32223448 1.32967433 191.16424465 1.41219115 C203.93905957 2.78981453 216.14073117 6.84117596 225.18359375 16.44628906 C235.47028469 29.79520303 237.21120592 46.02324818 239.15625 62.24121094 C240.57268493 72.76762263 243.24117435 84.12976051 252.0625 90.95410156 C253.23619141 91.66179687 253.23619141 91.66179687 254.43359375 92.38378906 C255.19800781 92.86074219 255.96242188 93.33769531 256.75 93.82910156 C266.48596078 98.28887834 277.15552663 99.29377966 287.66796875 100.63183594 C301.92736309 102.58148997 317.28127468 106.19154553 326.53515625 118.20019531 C335.33993216 131.7677886 337.26476461 146.46982557 339.15625 162.24121094 C340.57268493 172.76762263 343.24117435 184.12976051 352.0625 190.95410156 C353.23619141 191.66179687 353.23619141 191.66179687 354.43359375 192.38378906 C355.19800781 192.86074219 355.96242188 193.33769531 356.75 193.82910156 C366.48596078 198.28887834 377.15552663 199.29377966 387.66796875 200.63183594 C401.91248067 202.57945513 417.31078188 206.18432909 426.53515625 218.20800781 C439.00800681 237.35492753 438.03137762 259.64555905 438.0390625 281.63769531 C438.04228345 283.81705242 438.04564812 285.99640932 438.04914856 288.17576599 C438.0551128 292.73217265 438.05699132 297.28856042 438.05639648 301.8449707 C438.05629518 307.63166337 438.06992673 313.41823248 438.08716869 319.20489597 C438.09838851 323.70499711 438.10031263 328.20506935 438.09978676 332.70518303 C438.10095269 334.83582928 438.10529466 336.96647664 438.11311913 339.09710884 C438.27256663 387.00883716 438.27256663 387.00883716 423.28515625 404.06347656 C409.75146594 416.80495085 391.04630638 417.95778978 373.48046875 417.54003906 C358.74331676 416.942183 344.63331788 413.69104767 333.61328125 403.21972656 C322.99106156 391.26377525 321.14175174 375.37904875 319.16479492 360.12182617 C316.91148913 342.85064459 316.91148913 342.85064459 306.87109375 329.25878906 C306.14921875 328.57816406 305.42734375 327.89753906 304.68359375 327.19628906 C296.0753733 321.26618164 286.18207596 320.11674541 276.05859375 318.75878906 C241.83207509 314.1321752 241.83207509 314.1321752 231.20703125 300.31347656 C224.15907953 289.47364439 221.75745704 278.60516174 219.98046875 266.00878906 C219.81756348 264.87973145 219.6546582 263.75067383 219.48681641 262.58740234 C219.16794709 260.34326041 218.86464413 258.09683186 218.57958984 255.84814453 C217.21922873 246.12222581 214.86860462 235.65679776 206.87109375 229.25878906 C206.14921875 228.57816406 205.42734375 227.89753906 204.68359375 227.19628906 C196.0753733 221.26618164 186.18207596 220.11674541 176.05859375 218.75878906 C141.83207509 214.1321752 141.83207509 214.1321752 131.20703125 200.31347656 C124.15907953 189.47364439 121.75745704 178.60516174 119.98046875 166.00878906 C119.81756348 164.87973145 119.6546582 163.75067383 119.48681641 162.58740234 C119.16794709 160.34326041 118.86464413 158.09683186 118.57958984 155.84814453 C117.21922873 146.12222581 114.86860462 135.65679776 106.87109375 129.25878906 C106.16984375 128.57816406 105.46859375 127.89753906 104.74609375 127.19628906 C91.0591695 117.97249229 72.72100325 118.96466029 56.90187836 118.92326355 C53.77848279 118.91483122 50.65536025 118.89419794 47.53204346 118.87072754 C40.89510188 118.82293177 34.2581324 118.7897554 27.62109375 118.75878906 C19.93108688 118.72282633 12.24121563 118.68049781 4.5513382 118.62284851 C1.51025911 118.60313726 -1.53070958 118.59453466 -4.57183838 118.58654785 C-49.23833619 118.34444154 -49.23833619 118.34444154 -65.93359375 103.67285156 C-78.67506804 90.13916126 -79.82790697 71.43400169 -79.41015625 53.86816406 C-78.81230019 39.13101207 -75.56116486 25.02101319 -65.08984375 14.00097656 C-55.39888309 5.39107924 -43.52130679 2.39111643 -30.94165039 1.16558838 C-30.06857018 1.08020569 -29.19548998 0.994823 -28.2959528 0.90685296 C-18.86111157 0.05067993 -9.4666125 -0.02297881 0 0 Z " fill="#232323" transform="translate(849.12890625,969.7412109375)"/>
<path d="M0 0 C13.65949691 12.97935599 15.28381066 32.80829733 15.80835724 50.61593628 C15.90466727 55.73225381 15.89604182 60.84784365 15.88378906 65.96484375 C15.88650799 67.90723806 15.89007393 69.84963133 15.89440918 71.79202271 C15.90342831 77.00690935 15.90003277 82.22171573 15.89365101 87.43660355 C15.88853613 92.93161462 15.89329754 98.42661948 15.89642334 103.92163086 C15.90004716 113.14405533 15.89530571 122.36644762 15.88574219 131.58886719 C15.87486073 142.20382358 15.87838743 152.81870311 15.889395 163.43365765 C15.89851327 172.5985997 15.89973108 181.76351881 15.89451766 190.92846394 C15.89142279 196.37988352 15.89091942 201.83126715 15.89759064 207.28268433 C15.90343 212.41123878 15.8992486 217.53969553 15.88780212 222.66823959 C15.88519037 224.53406488 15.88585971 226.3998986 15.89032745 228.26572037 C15.98862809 273.54311286 15.98862809 273.54311286 1.0390625 290.5546875 C-7.6997674 298.78197614 -18.90375824 301.70286182 -30.375 303.75 C-53.84001447 306.84336498 -53.84001447 306.84336498 -73.375 318.75 C-79.71528626 328.73790773 -81.58106612 339.28929192 -83.265625 350.77734375 C-86.58203191 373.17229336 -86.58203191 373.17229336 -91.375 381.75 C-91.973125 382.8225 -92.57125 383.895 -93.1875 385 C-105.86047745 400.93174307 -122.24070392 403.7630576 -141.4609375 406.484375 C-159.07171293 408.89696847 -159.07171293 408.89696847 -173.375 418.75 C-179.71528626 428.73790773 -181.58106612 439.28929192 -183.265625 450.77734375 C-186.58203191 473.17229336 -186.58203191 473.17229336 -191.375 481.75 C-192.2721875 483.35875 -192.2721875 483.35875 -193.1875 485 C-202.55068534 496.77086158 -213.99788165 502.67843178 -229.04150391 504.5390625 C-249.41121733 506.38039253 -270.1203134 505.4514656 -287.0390625 492.75 C-299.62456555 481.30098051 -302.3198912 464.11594559 -303.27773476 447.90869904 C-303.64728152 439.70700014 -303.54009325 431.4814233 -303.54296875 423.2734375 C-303.54619035 421.09550963 -303.54955507 418.91758198 -303.55305481 416.73965454 C-303.55901519 412.18922424 -303.56089794 407.63881283 -303.56030273 403.08837891 C-303.56020137 397.30956199 -303.57384084 391.53086865 -303.59107494 385.75208092 C-303.60229384 381.25627099 -303.60421892 376.76048999 -303.60369301 372.26466751 C-303.60485878 370.13681234 -303.60919974 368.00895606 -303.61702538 365.88111496 C-303.73544763 330.35386515 -303.73544763 330.35386515 -297.375 313.75 C-297.12363281 313.00621094 -296.87226563 312.26242187 -296.61328125 311.49609375 C-292.79083936 301.96795811 -282.33937157 296.07868862 -273.4375 291.95703125 C-264.70679165 288.51597401 -255.61808552 287.49346152 -246.375 286.3125 C-233.79241353 284.68462721 -220.40812081 282.87120452 -211.6328125 272.73828125 C-204.60479291 262.44100876 -203.48259629 249.05967489 -201.875 237 C-199.93106306 222.56805614 -196.64197413 207.49373173 -184.43359375 198.0859375 C-172.44290894 190.30450637 -160.30142271 188.09183757 -146.375 186.3125 C-126.96574458 183.82726942 -126.96574458 183.82726942 -111.59765625 172.5625 C-104.11368411 161.14441048 -103.24259123 147.42714614 -103.20141602 134.14135742 C-103.1913855 132.76843033 -103.1913855 132.76843033 -103.18115234 131.36776733 C-103.16718578 129.393768 -103.15526566 127.41975331 -103.14520454 125.44573021 C-103.12862214 122.30159875 -103.10537417 119.15757867 -103.08030701 116.01350403 C-103.01004019 107.07815241 -102.94985667 98.14275359 -102.89819336 89.20727539 C-102.86602534 83.72435701 -102.82465608 78.24156608 -102.77799797 72.75875282 C-102.76219507 70.6903651 -102.74977634 68.62194815 -102.74109077 66.5535183 C-102.53323178 17.7231603 -102.53323178 17.7231603 -87.7890625 0.9453125 C-66.57573927 -19.02625523 -21.91065027 -17.56165542 0 0 Z " fill="#232323" transform="translate(671.375,1183.25)"/>
<path d="M0 0 C12.32492184 11.71123278 14.25523443 28.8648746 16.33129883 44.88696289 C17.87797655 56.63755209 19.83657317 69.72472862 29.81640625 77.4453125 C30.59886719 77.91710938 31.38132812 78.38890625 32.1875 78.875 C32.95191406 79.35195312 33.71632813 79.82890625 34.50390625 80.3203125 C44.23986703 84.78008928 54.90943288 85.7849906 65.421875 87.12304688 C78.29128078 88.88265098 89.04865944 92.07663574 99.625 99.75 C100.29402344 100.18828125 100.96304687 100.6265625 101.65234375 101.078125 C110.34272701 107.39148877 113.04224731 118.97153376 115.08203125 128.97265625 C116.92773429 141.81290689 116.78854634 154.65963639 116.79296875 167.6015625 C116.79618925 169.82815573 116.79955389 172.05474875 116.80305481 174.28134155 C116.80901943 178.93610117 116.81089751 183.5908423 116.81030273 188.24560547 C116.81020136 194.16243185 116.82383988 200.07913757 116.84107494 205.99593544 C116.85228379 210.59293139 116.85421922 215.18989899 116.85369301 219.7869072 C116.85486031 221.96582835 116.85921033 224.14475054 116.86702538 226.32365799 C117.02368929 274.5186476 117.02368929 274.5186476 101.625 291.4375 C87.75855552 304.54884106 68.42866582 305.44781028 50.3828125 305.02734375 C35.66867859 304.44923709 21.75819349 300.75285495 10.625 290.625 C-0.0719838 278.7769493 -1.95481771 262.88135918 -4.109375 247.6640625 C-6.52196847 230.05328707 -6.52196847 230.05328707 -16.375 215.75 C-27.4530165 208.81553836 -39.16717481 207.0186484 -51.875 205.3125 C-68.08573567 203.11991713 -82.82902022 199.1559065 -93.375 185.75 C-104.71392968 166.90119097 -103.53554343 144.46866526 -103.54296875 123.2734375 C-103.54619035 121.09550963 -103.54955507 118.91758198 -103.55305481 116.73965454 C-103.55901519 112.18922424 -103.56089794 107.63881283 -103.56030273 103.08837891 C-103.56020137 97.30956199 -103.57384084 91.53086865 -103.59107494 85.75208092 C-103.60229384 81.25627099 -103.60421892 76.76048999 -103.60369301 72.26466751 C-103.60485878 70.13681234 -103.60919974 68.00895606 -103.61702538 65.88111496 C-103.73544763 30.35386515 -103.73544763 30.35386515 -97.375 13.75 C-97.12363281 13.00621094 -96.87226562 12.26242187 -96.61328125 11.49609375 C-92.84292296 2.097786 -82.44954133 -3.97239785 -73.6328125 -8.03125 C-50.94861729 -16.51742375 -19.31569477 -15.4817667 0 0 Z " fill="#232323" transform="translate(1071.375,1383.25)"/>
</svg>
